<?xml version="1.0" encoding="utf-8"?>
<!-- Generator: Adobe Illustrator 28.0.0, SVG Export Plug-In . SVG Version: 6.00 Build 0)  -->
<svg version="1.1" id="圖層_1" xmlns="http://www.w3.org/2000/svg" xmlns:xlink="http://www.w3.org/1999/xlink" x="0px" y="0px"
	 viewBox="0 0 10.37 10.46" style="enable-background:new 0 0 10.37 10.46;" xml:space="preserve">
<style type="text/css">
	.st0{fill:url(#SVGID_1_);}
	.st1{fill:url(#SVGID_00000065052888501034467980000003819593104025257382_);}
</style>
<g>
	<linearGradient id="SVGID_1_" gradientUnits="userSpaceOnUse" x1="5.1047" y1="0" x2="5.1047" y2="4.1767">
		<stop  offset="0" style="stop-color:#E47A12"/>
		<stop  offset="0.2405" style="stop-color:#E17613"/>
		<stop  offset="0.4924" style="stop-color:#DA6B16"/>
		<stop  offset="0.7484" style="stop-color:#CF571A"/>
		<stop  offset="1" style="stop-color:#C03D1F"/>
	</linearGradient>
	<path class="st0" d="M5.07,4.18C5.32,3.85,6.04,3.1,7.52,2.89C7.54,2.68,7.55,2.5,7.55,2.5c0.01-0.13-0.06-0.25-0.18-0.32
		C7.29,0.81,6.54,0,5.11,0C3.68,0,2.92,0.81,2.84,2.18C2.72,2.24,2.65,2.36,2.66,2.5c0,0,0.02,0.21,0.04,0.46
		C4.13,3.17,4.82,3.86,5.07,4.18z"/>
	
		<linearGradient id="SVGID_00000016777912245082040510000014725282960187946146_" gradientUnits="userSpaceOnUse" x1="5.1829" y1="3.4379" x2="5.1829" y2="10.4629">
		<stop  offset="0" style="stop-color:#A3ABB3"/>
		<stop  offset="0.1999" style="stop-color:#9DA5AC"/>
		<stop  offset="0.4903" style="stop-color:#8D9299"/>
		<stop  offset="0.8346" style="stop-color:#74767C"/>
		<stop  offset="1" style="stop-color:#66686E"/>
	</linearGradient>
	<path style="fill:url(#SVGID_00000016777912245082040510000014725282960187946146_);" d="M1.74,8.99C0.86,8.99,0.3,9.08,0,9.15
		V7.37h0.33c0.17,0,0.31-0.15,0.31-0.33c0-0.17-0.12-0.31-0.28-0.33c0.16-0.02,0.28-0.16,0.28-0.33c0-0.17-0.12-0.32-0.28-0.33
		c0.16-0.02,0.28-0.16,0.28-0.33c0-0.18-0.14-0.33-0.31-0.33H0V3.62c0.24-0.06,0.81-0.18,1.8-0.18c2.07,0,2.85,1.03,3,1.25v5.78
		C4.28,9.88,3.24,8.99,1.74,8.99z M10.01,5.38h0.36V3.63c-0.29-0.06-0.99-0.19-2.02-0.19c-2.08,0-2.86,1.13-3,1.36v5.66
		c0.52-0.58,1.56-1.47,3.06-1.47c0.95,0,1.61,0.11,1.96,0.18V7.37h-0.36c-0.17,0-0.31-0.15-0.31-0.33c0-0.17,0.12-0.31,0.28-0.33
		C9.82,6.69,9.7,6.55,9.7,6.38c0-0.17,0.12-0.32,0.28-0.33C9.82,6.03,9.7,5.89,9.7,5.71C9.7,5.53,9.84,5.38,10.01,5.38z"/>
</g>
</svg>
