<?xml version="1.0" encoding="UTF-8"?>
<svg id="_圖層_1" data-name="圖層 1" xmlns="http://www.w3.org/2000/svg" version="1.1" viewBox="0 0 32 32">
  <defs>
    <style>
      .cls-1 {
        fill: #000;
        stroke-width: 0px;
      }
    </style>
  </defs>
  <path class="cls-1" d="M20.7,14.7c0,1.4-4.8,5-4.8,5,0,0-4.8-3.6-4.8-5-4,.4-7.2,3.8-7.2,7.9s2.9,4.2,6.7,4.2.8,0,1.3,0h8.2c.4,0,.9,0,1.3,0,3.8,0,6.7-.2,6.7-4.2s-3.2-7.5-7.2-7.9ZM24.2,22.7c0,.1-.1.2-.2.2h-1.3v1.3c0,.1,0,.2-.2.2h-1.3c-.1,0-.2-.1-.2-.2v-1.3h-1.3c-.1,0-.2,0-.2-.2v-1.3c0-.1.1-.2.2-.2h1.3v-1.3c0-.1,0-.2.2-.2h1.3c.1,0,.2.1.2.2v1.3h1.3c.1,0,.2,0,.2.2v1.3Z"/>
  <path class="cls-1" d="M15.8,15.8c3.7,0,6.6-5.5,6.6-9.2S19.5,0,15.8,0s-6.6,3-6.6,6.6,3,9.2,6.6,9.2Z"/>
</svg>