<?xml version="1.0" encoding="UTF-8"?>
<svg id="_圖層_1" data-name="圖層 1" xmlns="http://www.w3.org/2000/svg" version="1.1" viewBox="0 0 32 32">
  <defs>
    <style>
      .cls-1 {
        fill: #000;
        stroke-width: 0px;
      }
    </style>
  </defs>
  <path class="cls-1" d="M29.8,4.2l-2.9-2.9c-.5-.5-1.2-.5-1.7,0s-.5,1.2,0,1.7l.6.6-2.5,2.5-3.6-3.6c-.5-.5-1.2-.5-1.7,0s-.5,1.2,0,1.7l1.1,1.1-13.7,13.7c-1.3,1.3-1.3,3.3,0,4.6l.2.2-3.5,3.5c-.5.5-.5,1.2,0,1.7.2.2.5.3.8.3s.6-.1.8-.3l3.5-3.5.2.2c.6.6,1.5.9,2.3.9s1.7-.3,2.3-.9l2.2-2.2-2.1-2.1c-.5-.5-.5-1.2,0-1.7.5-.5,1.2-.5,1.7,0l2.1,2.1,1.9-1.9-3.3-3.3c-.5-.5-.5-1.2,0-1.7.5-.5,1.2-.5,1.7,0l3.3,3.3,1.9-1.9-2.1-2.1c-.5-.5-.5-1.2,0-1.7s1.2-.5,1.7,0l2.1,2.1,2.7-2.7,1.1,1.1c.2.2.5.3.8.3s.6-.1.8-.3c.5-.5.5-1.2,0-1.7l-3.6-3.6,2.5-2.5.6.6c.2.2.5.3.8.3s.6-.1.8-.3c.5-.5.5-1.2,0-1.7Z"/>
</svg>