<?xml version="1.0" encoding="utf-8"?>
<!-- Generator: Adobe Illustrator 27.9.1, SVG Export Plug-In . SVG Version: 6.00 Build 0)  -->
<svg version="1.1" id="圖層_1" xmlns="http://www.w3.org/2000/svg" xmlns:xlink="http://www.w3.org/1999/xlink" x="0px" y="0px"
	 viewBox="0 0 455.4 61.9" style="enable-background:new 0 0 455.4 61.9;" xml:space="preserve">
<style type="text/css">
	.st0{fill:#004392;}
	.st1{fill:#E2690D;}
</style>
<g>
	<g>
		<path class="st0" d="M20.5,38.1c0-12.7,16.7-24.6,35.7-24.6c12.2,0,23,4.3,29.4,11C81,10.6,63.8,0.4,43.4,0.4
			C20.3,0.4,0,15.1,0,30.9c0,17.5,19.2,31,43.2,31c0.6,0,1.3,0,1.9,0C30.8,58.7,20.5,49.4,20.5,38.1z"/>
	</g>
	<g>
		<path class="st1" d="M70,25.5L70,25.5l-22.5,0c1.9,3.3,3.1,8.4,3.1,14.1c0,5.4-1.1,10.3-2.8,13.6H70v-0.2
			c7.2-0.5,12.9-6.5,12.9-13.8S77.2,26,70,25.5z"/>
	</g>
</g>
<g>
	<g>
		<path class="st0" d="M113.4,17.6c0.4,0.1,0.6,0.3,0.7,0.7c0.1,0.7-0.3,1.4-1.1,2.3c-1,1-1.7,1.7-2.2,1.9c-0.7,0.4-1.3,0.5-1.9,0.3
			c-0.7-0.3-1-0.8-0.8-1.6s0.6-1.2,1.4-1.2c0.9-0.1,1.7-0.5,2.3-1.2C112.5,17.9,113,17.5,113.4,17.6z M112.2,17.1
			c-0.9,0.1-1.6-0.2-2-0.8c-0.4-0.5-0.6-1.3-0.6-2.4c-0.1-6.1-0.1-9.5,0-10.2c0.1-0.6,0.4-1,0.7-1.2c0.5-0.3,1.1-0.5,1.7-0.4
			c0.2,0,0.7,0,1.5,0c3.8-0.1,6,0.1,6.4,0.7c0.3,0.4,0.5,1,0.4,1.9c0,0.8,0,1.7,0,2.8c0,1.9,0,3.4,0,4.7c0,0.5,0,1.1,0,1.7
			c0,1.3-0.2,2.1-0.7,2.5c-0.6,0.5-1.4,0.7-2.4,0.6C114.8,16.9,113,17,112.2,17.1z M118,10.3c0-0.6,0-1.2,0-1.8
			c-0.2-0.1-0.5-0.1-0.8-0.1c-2.1-0.1-3.8-0.1-5.1,0.1c-0.1,0-0.2,0-0.2,0c0,0.9,0,1.5,0,1.8c0,0,0.1,0,0.1,0c0.5,0.1,1.5,0.1,3,0.1
			C116.6,10.4,117.6,10.3,118,10.3z M117.9,6.4c0-1.1-0.1-1.8-0.3-1.9c-0.2-0.2-1.2-0.3-3.1-0.3c-1.5,0-2.3,0.1-2.4,0.2
			c-0.2,0.1-0.2,0.8-0.2,2c0,0,0.1,0,0.1,0c0.5,0.1,1.5,0.1,3.1,0.1C116.5,6.4,117.5,6.4,117.9,6.4z M112,12.5L112,12.5
			c0,1.1,0.1,1.7,0.3,1.7c0.2,0.1,1,0.2,2.7,0.2c1.5,0,2.4-0.1,2.7-0.2c0.2-0.2,0.3-0.8,0.3-1.7c-0.1-0.1-0.4-0.1-0.9-0.1
			C115,12.3,113.3,12.3,112,12.5z M120.6,20.9c0.4,0.7,0.5,1.2,0.2,1.4c-0.3,0.2-0.8,0.2-1.5-0.1c-0.5-0.4-1.2-0.8-2.1-1.3
			c-0.8-0.2-1.2-0.6-1.4-1.1c-0.1-0.3,0-0.6,0.3-0.9c0.2-0.3,0.6-0.5,1-0.6c0.5-0.1,1-0.1,1.3,0.1c0.3,0.2,0.6,0.5,0.6,0.7
			C119.4,19.7,119.9,20.3,120.6,20.9z M127.5,15.2c-2.2,1.9-3.8,3.1-4.8,3.3c-1,0.3-1.7,0.3-2.1,0c-0.5-0.4-0.7-0.9-0.6-1.4
			c0.2-0.5,0.5-0.9,1.2-1.2c3.5-1.5,5.9-3.2,7.4-5.1c0-0.1,0.1-0.1,0.1-0.1c0-1,0-1.8,0-2.7c-1.4,0-2.8,0.2-4.1,0.8
			c-1.5,0.6-2.4,0.6-2.8,0c-0.3-0.5-0.4-1-0.1-1.6c0.6-0.9,1.3-1.3,2.1-1.3c0.2,0,1.9-0.1,4.9-0.1c0-1.4-0.1-2.5-0.1-3.5
			c0-0.9,0.2-1.3,0.7-1.4s1.1,0.2,1.7,0.6c0.5,0.4,0.6,1,0.5,1.7c-0.1,0.5-0.2,1.4-0.3,2.6c1.1,0,2.2,0,3.4,0c1.1,0,1.6,0.2,1.5,0.6
			c-0.1,0.4-0.6,0.9-1.4,1.5c-0.4,0.3-1.2,0.4-2.2,0.2C132.1,8,131.6,8,131.2,8c-0.1,4.4,0,8.3,0.4,11.5c0.2,2,0.2,3.2-0.3,3.5
			c-0.8,0.6-1.4,0.4-2.1-0.5c-0.3-0.5-0.5-1.2-0.4-2.3c0-0.6,0-2.6,0-6.1C128.4,14.3,128,14.7,127.5,15.2z"/>
		<path class="st0" d="M157.1,0.5c4.6-0.1,7.1,0,7.7,0.3c0.7,0.3,1.2,0.9,1.5,1.7c0.2,0.6,0.3,1.7,0.2,3.2
			c-0.5,4.8-0.6,8.9-0.5,12.4c0.1,1.6,0,2.8-0.3,3.8c-0.3,0.7-0.8,1.3-1.6,1.7c-0.6,0.2-1.4,0.3-2.6,0.1c-1.1-0.2-3.7-0.3-7.8-0.3
			c-4,0-7,0.1-8.9,0.4c-1.5,0.2-2.6,0-3.2-0.6c-0.6-0.6-0.9-2.3-0.7-5.2c0.2-5.8,0.3-10.3,0.2-13.5c0-1.6,0.3-2.8,1-3.5
			c0.4-0.4,2.2-0.6,5.4-0.5C148.7,0.5,151.9,0.5,157.1,0.5z M157.1,13.3c0.5-0.2,0.9-0.1,1.3,0.3c0.1,0,0.1,0.1,0.1,0.2
			c0.5,0,0.8,0,1.1,0c1.6,0.1,2.7,0.1,3.4,0.1c0.6,0,0.8,0.3,0.5,0.8c-0.5,0.7-1,1.3-1.6,1.8c-0.5,0.4-1.1,0.4-1.8,0.1
			c-0.5-0.2-1-0.4-1.5-0.6c-0.2,1-0.4,2-0.4,3c-0.6,1.1-2.2,1.8-4.9,2.2c1.9,0,4,0.1,6.2,0.2c1.6,0,2.6-0.1,3-0.4
			c0.5-0.5,0.7-1.2,0.8-2.2c0.2-3.1,0.4-7.1,0.3-11.9c-0.1-1.9-0.3-3-0.8-3.4c-0.7-0.5-1.8-0.8-3.2-0.8c-4-0.2-7.4-0.2-10.2,0
			c-3.1,0.1-4.9,0.5-5.4,1.1c-0.4,0.5-0.6,1.3-0.6,2.3c-0.2,3.9-0.3,7.7-0.3,11.4c0,1.6,0.2,2.6,0.6,3.2c0.5,0.5,2,0.7,4.6,0.6
			c2.2-0.1,3.3-0.1,3.5-0.1c-0.4-0.2-0.8-0.5-1.1-1.1c-0.3-0.5-0.4-1-0.3-1.3c0.2-0.3,0.5-0.4,1-0.2c0.3,0.2,0.8,0.3,1.3,0.4
			c2-0.1,3.2-0.4,3.5-1c0-0.2,0-1.1-0.1-2.6c-3.5-0.4-6.8-0.2-10.1,0.8c-0.9,0.2-1.5,0.1-1.9-0.3c-0.3-0.5-0.1-0.9,0.4-1.4
			c0.8-0.6,2-0.8,3.5-0.8c3.6-0.1,6.4-0.1,8.2,0C156.7,13.5,156.9,13.3,157.1,13.3z M149.7,11c-1,0.2-1.6,0.2-1.8,0
			c-0.5-0.3-0.7-0.9-0.7-1.7c0-0.2-0.1-0.5-0.1-0.9c-0.2-1.3-0.1-2.2,0.3-2.7c0.2-0.2,1.6-0.3,4.1-0.4c0.3,0,0.6,0,0.9,0
			c0-0.3,0-0.6,0-0.9c-1.4,0-2.8,0.3-4.2,0.8c-1.1,0.4-1.7,0.4-2,0c-0.2-0.3-0.2-0.7,0-1.1c0.3-0.5,0.7-0.8,1.3-0.9
			c0.1,0,1.2,0,3.3,0c0.6,0,1.2,0,1.7,0c0.1-0.1,0.2-0.2,0.2-0.3c0.6-0.4,1.1-0.4,1.5,0c0.1,0.1,0.1,0.2,0.2,0.3c1.8,0,3.7,0,5.6,0
			c0.7,0,1.1,0.2,1.1,0.4c-0.1,0.3-0.4,0.7-1,1.1c-0.3,0.2-0.8,0.2-1.6,0.2c-1.4-0.2-2.7-0.3-3.8-0.3c0,0.2,0,0.4,0,0.7
			c0,0,0,0.1,0,0.2c2.7-0.1,4.3,0.1,4.7,0.5c0.4,0.4,0.6,0.9,0.5,1.7c-0.1,0.2-0.2,0.5-0.2,0.8c0,1-0.2,1.7-0.6,2.1
			c-0.5,0.4-1.2,0.6-2.1,0.4c-0.1,0-0.1,0-0.2,0c0.1,0.1,0.3,0.2,0.4,0.3c0.3,0.3,0.4,0.6,0.3,0.9c-0.1,0.4-0.5,0.6-1.2,0.8
			c-0.1,0-0.3,0-0.3,0.1c-2.9,0.3-4.8,0.3-5.8,0c-0.3-0.1-0.5-0.3-0.6-0.5c-0.1-0.2,0-0.4,0.1-0.6c0.2-0.3,0.5-0.6,1.1-0.9
			C150.5,10.9,150,11,149.7,11z M152.4,6.9c-2.1,0-3.2,0.2-3.5,0.4c0,0,0,0,0,0.1c0.7,0.1,1.9,0.1,3.5,0.1
			C152.4,7.2,152.4,7.1,152.4,6.9z M152.3,8.5c-1.6,0-2.7,0.1-3.3,0.2c0,0.3,0.1,0.4,0.2,0.4c0.1,0.1,1.2,0.1,3.2,0.1
			C152.3,9,152.3,8.7,152.3,8.5z M150.4,18.1c-0.4,0-0.7-0.3-0.9-0.8c-0.1-0.4-0.1-0.7,0.2-1c0.3-0.3,0.6-0.3,0.9-0.2
			c1.3,0.2,2.4,0.2,3.4,0c0.2,0,0.4,0.1,0.4,0.3c0,0.3-0.3,0.6-0.8,0.9C152.2,18,151.2,18.3,150.4,18.1z M154.9,10.8
			c-0.9-0.1-1.4-0.1-1.5,0c-0.1,0-0.2,0.1-0.2,0.2c-0.4,0.2-0.7,0.4-0.9,0.6c-0.1,0.1-0.2,0.2-0.2,0.2c0,0.1,0.2,0.2,0.4,0.2
			c2.1,0,3.2-0.1,3.3-0.2c0-0.1,0-0.2-0.2-0.3c-0.2-0.2-0.4-0.3-0.6-0.5C154.9,10.8,154.9,10.8,154.9,10.8z M154.6,9.1
			c0.8,0,1.5-0.1,1.9,0c0.6,0,1-0.1,1.2-0.2c0,0,0-0.1,0.1-0.2c-0.6-0.1-1.6-0.1-3.2-0.1C154.6,8.7,154.6,8.9,154.6,9.1z M154.6,7.5
			c1.5,0,2.6-0.1,3.1-0.1c0-0.2,0-0.3-0.1-0.3c-0.3-0.2-1.3-0.3-3.1-0.2c0,0.2,0,0.4,0,0.5C154.6,7.4,154.6,7.4,154.6,7.5z"/>
		<path class="st0" d="M175.9,11.7c0.8,0.4,1.1,0.8,1,1.1c-0.1,0.4-0.5,0.7-1.4,0.8c-0.4,0-1.1,0.1-1.9,0.2
			c-0.8,0.2-1.4,0.2-1.9-0.2c-0.2-0.2-0.3-0.6-0.3-1c0.1-0.4,0.3-0.8,0.6-1.1c0.4-0.4,0.8-0.7,1.3-0.7c0.4,0,0.8,0.1,1,0.3
			C174.8,11.3,175.3,11.5,175.9,11.7z M179.4,18.8c0.1,0.5-0.3,1-1.1,1.5c-1.5,1.3-2.5,2.3-3.1,2.8c-0.9,0.6-1.6,0.7-2.1,0.3
			c-0.4-0.5-0.7-1-0.8-1.6c-0.2-0.8,0.3-1.4,1.3-1.8c0.8-0.2,2.2-0.6,4.5-1.3C178.8,18.3,179.3,18.4,179.4,18.8z M178.1,5.6
			c0.6,0.6,0.8,1.1,0.6,1.4c-0.3,0.4-0.8,0.5-1.6,0.2c-0.5-0.2-1.2-0.4-2.2-0.7c-0.8,0-1.4-0.3-1.7-0.8c-0.1-0.3-0.1-0.7,0.1-1.1
			c0.2-0.4,0.5-0.7,0.9-0.9c0.5-0.2,1-0.3,1.4-0.2c0.4,0.1,0.7,0.3,0.8,0.6C176.9,4.7,177.4,5.2,178.1,5.6z M184.2,23.6
			c-0.9,0.1-1.5,0-1.8-0.2c-0.4-0.3-0.6-0.6-0.5-1.1c0.1-0.5,0.8-1.5,2-3c1.8-2.2,2.8-3.6,3.1-4.2c0.1-0.1,0.2-0.3,0.2-0.3
			c-2.6-0.1-4.9,0.4-7.1,1.6c-1,0.5-1.8,0.5-2.4-0.1c-0.5-0.6-0.4-1.4,0.3-2.3c0.4-0.5,0.8-0.7,1.5-0.7c0.5,0,1.7-0.1,3.6-0.3
			c1.2-0.2,2.3-0.3,3.5-0.3c0-0.3,0-0.6,0-1c0-0.4,0.1-1.2,0-2.5c-1-0.1-2.1,0.1-3.2,0.4c-1.3,0.3-2.1,0.2-2.6-0.2
			c-0.5-0.5-0.5-1,0.1-1.6c0.5-0.6,2.4-0.9,5.7-0.9c-0.1-1.7-0.1-2.8-0.2-3.1c-0.2-0.8-0.2-1.4,0.2-2c0.3-0.5,0.6-0.7,1.1-0.6
			c0.5,0,0.9,0.3,1.4,0.8c0.4,0.4,0.5,1,0.4,1.7c-0.1,0.8-0.2,1.9-0.3,3.3c1.4,0,2.9,0.1,4.6,0.2c0.7,0,1.1,0.2,1.3,0.5
			c0.1,0.2,0.2,0.6,0,1.1c-0.1,0.4-0.4,0.7-0.8,0.9c-0.2,0.1-0.4,0.1-0.7,0.1c-2.1-0.4-3.6-0.6-4.5-0.5c0,1,0,1.8,0.1,2.3
			c0.1,0.5,0.1,0.9,0,1.2c1.5-0.1,4.9,0.2,10.2,0.9c0.7,0.1,0.8,0.4,0.5,1c-0.3,0.4-0.6,0.8-0.9,1.2c-1,1.2-2,1.5-3,1
			c-2.2-1.3-4.7-1.9-7.5-1.9c0.1,0.1,0.1,0.1,0.2,0.2c0.4,0.5,0.9,1,1.6,1.4c1.1,0.6,2.5,1.8,4.2,3.5c0.9,1,1.2,1.6,1.1,2.1
			c-0.1,0.3-0.2,0.6-0.4,0.8c-0.3,0.2-0.7,0.3-1.3,0.4c-0.8,0-2.4,0.1-4.8,0.2C187.2,23.4,185.6,23.5,184.2,23.6z M187.9,18
			c-0.2,0-0.6,0.4-1.2,1.1c-1,1.1-1.3,1.7-1.1,1.9c0.1,0.1,1.3,0.2,3.6,0.2c2.3-0.2,3.5-0.3,3.6-0.4c0-0.2-0.3-0.6-1-1.1
			c-0.6-0.5-1.3-0.9-2.1-1.3C188.8,18.2,188.2,18,187.9,18z"/>
		<path class="st0" d="M206.4,20.3c-0.9,0.5-1.7,0.6-2.4,0.3c-0.8-0.5-1.3-1-1.4-1.5c0-0.6,0.3-1.1,0.8-1.4c3.7-2.1,6.6-4.3,8.7-6.7
			c0-0.1,0.1-0.1,0.1-0.1c1.9-2.7,2.6-4.8,2.2-6.5c0-0.5,0.1-0.9,0.3-1.1c0.3-0.4,0.8-0.5,1.3-0.3c0.8,0.2,1.2,0.7,1.5,1.4
			c0.3,0.8,0.2,1.6-0.2,2.3c-0.7,1.3-1.1,2.1-1.2,2.7c0.1,0.1,0.2,0.2,0.2,0.4c0.2,0.5,1.2,1.5,3.1,3.2c1.5,1.3,3.6,2.6,6.5,3.9
			c2.2,1.1,4,1.7,5.3,1.9c1.4,0.1,1.7,0.6,1.1,1.3c-0.5,0.6-2,1.3-4.4,1.9c-1.1,0.4-2.2-0.1-3.3-1.2c-4.6-4.8-8-7.6-10.1-8.5
			C211.9,15.8,209.1,18.5,206.4,20.3z"/>
		<path class="st0" d="M241.6,23.7c-0.4-0.3-0.6-0.8-0.6-1.6c0-0.6-0.1-1.3-0.2-2c-0.1-0.8-0.1-1.6-0.2-2.4c0-0.3-0.1-0.6-0.1-0.9
			c-0.1-0.8,0.1-1.3,0.5-1.7c0.3-0.2,0.7-0.4,1.4-0.4c1.1,0,2.3-0.1,3.6-0.1c0-0.4-0.1-0.7,0-0.9c-2.5,0.1-5.3,0.7-8.3,1.6
			c-1.1,0.3-1.9,0.2-2.2-0.4c-0.3-0.5-0.2-1.1,0.5-1.7c0.8-0.6,1.8-0.9,2.8-1c0.3,0,0.9,0,1.8,0c3.7-0.1,7.2-0.2,10.4-0.2
			c3.9,0.1,6.7,0.1,8.2,0.2c1.9,0.1,3.2,0.1,4,0c0.7,0,0.9,0.3,0.6,0.9c-0.5,0.9-1.1,1.6-1.8,2.1c-0.6,0.5-1.3,0.6-2.1,0.2
			c-2-0.9-3.8-1.4-5.6-1.6c-0.8-0.1-1.6-0.2-2.5-0.2c0,0,0,0.1,0,0.1c-0.1,0.2-0.1,0.5-0.1,0.8c1.1,0,2.1,0,2.9,0
			c1,0,1.8,0.2,2.3,0.5c0.5,0.2,0.7,0.7,0.6,1.2c-0.1,1.6-0.2,3.3-0.2,5.2c0,1.1-0.3,1.8-0.8,2c-0.5,0.3-1.3,0.4-2.4,0.2
			c-0.6-0.1-2.2-0.2-5.1-0.2c-2.4,0-4.2,0.1-5.6,0.3C242.7,24.1,242,24,241.6,23.7z M248.5,5.3c0.1,0.2,0.1,0.3,0,0.6
			c-0.1,0.2-0.2,0.4-0.4,0.5c-0.1,0.1-0.3,0.1-0.4,0.1c-0.5-0.1-1-0.2-1.4-0.2c-0.3,0-0.7,0-1.1,0c-0.1,0.1-0.1,0.2-0.1,0.3
			c-0.2,0.5-0.5,0.9-0.8,1.2c-0.3,0.3-0.6,0.6-0.9,0.8c-0.4,0.2-0.8,0.4-1,0.5c-0.4,0.1-0.6,0.1-0.8,0c-0.2-0.1-0.4-0.2-0.4-0.3
			c-0.1-0.3,0-0.5,0.2-0.6c0.2-0.2,0.5-0.4,1-0.6c0.2-0.1,0.4-0.2,0.7-0.5c0.2-0.2,0.4-0.4,0.5-0.6c-0.1,0-0.2,0-0.2,0
			c-0.4,0.1-0.7,0.1-0.9,0.2c-0.7,0.2-1.1,0.1-1.4-0.1c-0.2-0.3-0.2-0.6,0-0.9c0.2-0.2,0.6-0.4,1.3-0.4c0.5-0.1,1-0.1,1.7-0.1
			c0-0.4,0.1-0.7,0.1-0.8l0-0.1c-0.2,0-0.3,0-0.4,0c-0.4,0-0.6,0.1-0.8,0c-0.2,0.3-0.5,0.6-0.8,0.7c-0.3,0.1-0.5,0.1-0.5,0
			c-0.1-0.1,0-0.4,0.3-0.8c0.1-0.2,0.2-0.4,0.3-0.7c0.1-0.4,0.2-0.6,0.2-0.8c0-0.2,0-0.3,0.1-0.3c-0.5,0-1,0.1-1.4,0.2
			c-0.2,0-0.3,0-0.4,0.1c0,0.3-0.1,0.6-0.2,1c-0.2,0.7-0.2,2.7,0,5.9c0,0.2,0.2,0.3,0.5,0.3c1.3-0.1,3.5-0.2,6.5-0.2
			c0.7,0,1.1,0,1.2,0.1c0.1,0.1,0.1,0.3,0.1,0.7c0,0.5-0.3,0.8-0.8,1c-0.5,0.2-1,0.1-1.7-0.2c-0.5-0.1-1-0.1-1.6-0.1
			c-0.9,0-1.6,0.1-2.3,0.2c-1.2,0.1-2.3,0.3-3.2,0.6c-0.6,0.3-1,0.3-1.2,0s-0.4-0.6-0.3-0.9c0-0.3,0.2-0.7,0.5-1.2
			c0.2-0.3,0.3-0.6,0.5-0.9c0.2-2.2,0.2-4.1,0-5.6c0-0.3,0-0.6-0.1-0.9c0-0.3,0-0.7,0.2-1.1c0.1-0.3,0.4-0.4,0.8-0.3c0,0,0,0,0,0
			c0.4-0.3,1.2-0.5,2.3-0.5c1.6,0,3.1,0,4.6,0.1c1.1,0,1.9,0.1,2.2,0.4c0.2,0.2,0.2,0.5,0.1,0.9c-0.1,0.3-0.5,0.5-1.3,0.5
			c-1.4,0-2.7,0-3.8,0c-0.3,0-0.5,0-0.7,0c0.1,0,0.2,0.1,0.3,0.2c0.2,0.2,0.3,0.3,0.3,0.5c0.2,0,0.5,0,0.8,0c0.7,0,1.4,0,2.1,0.1
			c0.8,0,1.3,0.1,1.5,0.3c0.1,0.2,0.2,0.3,0.1,0.6c-0.1,0.2-0.4,0.3-0.9,0.3c-0.5,0-0.9,0-1.2,0c0,0.2-0.1,0.3-0.1,0.4
			c-0.1,0.1-0.1,0.3-0.1,0.5c0.7,0,1.5,0,2.3,0C248.1,5.1,248.4,5.2,248.5,5.3z M254.3,17.3c0.4-0.1,0.5,0.1,0.4,0.4
			c-0.2,0.6-0.5,1-0.8,1.2c-0.2,0.1-0.9,0.1-2.1-0.2c-0.7-0.2-1.1-0.4-1.3-0.6c-0.3-0.3-0.5-0.9-0.5-1.7c-0.6,0-1.1,0-1.8,0
			c-0.2,0-0.4,0-0.6,0.1c-0.1,0.3-0.1,0.5-0.1,0.8c-0.1,0.4-0.2,0.7-0.4,1c-0.3,0.3-0.7,0.6-1.2,0.8c-0.5,0.2-0.9,0.3-1.1,0.3
			c-0.2,0-0.4,0-0.7-0.1c-0.2-0.1-0.3-0.3-0.4-0.5c-0.1-0.3-0.1-0.6,0-0.8c0-0.1,0.2-0.2,0.6-0.2c0.3,0,0.6-0.1,0.9-0.2
			c0.2-0.1,0.4-0.2,0.6-0.3c0.1-0.2,0.2-0.4,0.3-0.6c0-0.1,0-0.1,0-0.1c-1.7,0.1-2.7,0.2-2.9,0.4c-0.2,0.2-0.2,1.2-0.1,3
			c0.1,1.1,0.3,1.6,0.4,1.8c0.2,0.2,0.7,0.2,1.5,0.2c4.2-0.2,7-0.2,8.4-0.2c0.9,0,1.4-0.1,1.6-0.3c0.2-0.3,0.3-1.2,0.3-2.7
			c0-1.2-0.1-1.9-0.3-2c-0.3-0.2-1.4-0.3-3.2-0.3c0,0,0,0.1,0,0.2c-0.1,0.3,0.1,0.6,0.5,0.8C252.8,17.3,253.5,17.4,254.3,17.3z
			 M251.7,19.4c0.8,0,1.4,0.1,1.6,0.3c0.2,0.1,0.2,0.4,0.1,0.6c-0.1,0.2-0.4,0.4-1,0.4c-1.4,0-2.7-0.1-3.8-0.1c-1,0-1.9,0.1-2.6,0.2
			c-0.8,0.1-1.2,0-1.4-0.3c-0.1-0.3-0.1-0.6,0.2-0.8c0.3-0.2,0.9-0.4,1.7-0.3C248.4,19.4,250.1,19.4,251.7,19.4z M248.3,7.7
			c0.2,0.2,0.3,0.4,0.3,0.6c-0.1,0.2-0.3,0.2-0.6,0.2c-0.6-0.1-1.1-0.2-1.6-0.2c-0.4,0-0.7-0.1-0.9-0.3c-0.1-0.2-0.1-0.3-0.1-0.5
			c0.1-0.2,0.2-0.4,0.4-0.5c0.2-0.1,0.4-0.2,0.5-0.2c0.2,0,0.4,0.1,0.6,0.2C247.3,7.3,247.8,7.5,248.3,7.7z M250,14.6
			c0-0.3,0-0.5,0-0.7c0-0.1,0-0.2,0-0.2c-0.8,0-1.5,0-2.3,0c0.1,0.3,0.1,0.6,0.1,0.9C248.6,14.6,249.3,14.6,250,14.6z M250.2,10.9
			c-0.8-0.9-1.2-1.5-1.1-1.9c0.1-0.1,0.3-0.2,0.7-0.2c1,0,1.8,0,2.5-0.1c0.4-0.1,0.9-0.3,1.4-0.6c-0.2-0.1-0.4-0.2-0.5-0.2
			c-0.5-0.1-0.9-0.2-1.4-0.2c-0.6,0-0.9-0.3-0.9-0.8c0-0.4,0.3-0.7,0.7-0.9c0.7-0.2,1.4-0.1,1.9,0.3c0.4,0.3,0.8,0.4,1.1,0.5
			c0.1,0,0.3,0.1,0.4,0.2c0.1-0.2,0.2-0.3,0.2-0.4c0.1-0.3,0.2-0.6,0.3-1c0-0.1,0.1-0.2,0.2-0.2c0.3-0.1,0.8,0,1.3,0.4
			c0.2,0.2,0.2,0.3,0.1,0.6c-0.2,0.4-0.4,0.8-0.5,1.2c0,0,0,0.1-0.1,0.1c0.1,0,0.2,0.1,0.3,0.2c0.9,0.4,1.6,0.7,2.3,0.9
			c0.7,0.2,1.5,0.4,2.4,0.5c0.6,0.1,0.8,0.4,0.4,0.9c-0.3,0.6-1.1,1.2-2.4,1.8c-0.8,0.4-1.5,0.2-2.1-0.6c-0.7-0.9-1.4-1.6-2.1-2.1
			c-0.4,0.4-0.9,0.7-1.4,1c-0.6,0.3-1.5,0.6-2.8,1C250.9,11.2,250.6,11.1,250.2,10.9z M258,1.9c0,0,0,0.1-0.1,0.2
			c0,0.1-0.1,0.5-0.3,1.1c0.8,0,1.2,0,1.4,0.1c0.6,0.1,0.9,0.2,1,0.3c0.1,0.3,0,0.7-0.2,1.1c-0.2,0.3-0.5,0.6-0.8,0.7
			c-0.3,0.1-0.7,0.1-1.3-0.1c-0.8-0.3-1.9-0.6-3.2-0.7c-0.9-0.1-1.7-0.1-2.3,0.1c-0.5,0.1-0.8,0.1-1,0.1c-0.2-0.1-0.3-0.3-0.4-0.5
			c-0.1-0.3-0.1-0.6-0.1-1.1c0-0.3,0-0.8,0-1.5c0-0.5,0-0.8,0.2-1c0.1-0.2,0.3-0.2,0.5-0.2c0.2,0,0.3,0,0.4,0.1
			c0.4-0.2,0.7-0.3,1-0.2c0.2,0,0.5,0,0.9,0.1c0.8,0,1.4,0,1.9,0c0.9-0.1,1.6,0.1,1.9,0.4C257.8,1.1,258,1.5,258,1.9z M252.3,2.1
			c0,0.3,0,0.5,0,0.7c0.2,0.2,0.3,0.3,0.4,0.3c0.2,0,0.4,0,0.6-0.1c0.2,0,1,0.1,2.3,0.2c0-0.1,0-0.2,0-0.3c0-0.2,0-0.3,0-0.3
			c0-0.2,0-0.5-0.2-0.7c-0.2,0-0.7,0-1.5,0C253.1,2,252.6,2,252.3,2.1z"/>
		<path class="st0" d="M294,16.3c0.9,0,1.4,0.2,1.5,0.5c0.1,0.3-0.3,0.9-1.2,1.9c0,0-0.1,0-0.1,0.1c-1.4,1.2-2.7,1.5-3.8,0.8
			c-1.6-1.1-4.1-1.6-7.7-1.6c-0.1,0.3-0.1,0.8-0.1,1.2c0,1.4,0,2.5-0.2,3.3c-0.2,0.8-0.4,1.2-0.8,1.3c-0.4,0.1-0.8,0-1.1-0.4
			c-0.1-0.2-0.2-0.4-0.2-0.7c-0.1-0.4-0.1-2-0.1-4.8c-3.5,0.1-6.6,0.5-9.4,1.3c-1.5,0.5-2.4,0.6-2.9,0.4c-0.4-0.2-0.6-0.6-0.6-1
			c0-0.6,0.3-1.2,1-1.9c0.6-0.6,1.4-0.9,2.4-1c2.4-0.1,5.6-0.1,9.7-0.1c0.2-0.6,0.5-0.9,0.9-1c0.4-0.1,0.8,0,1,0.4
			c0.1,0.2,0.2,0.4,0.3,0.6C284.6,15.9,288.5,16.1,294,16.3z M272.5,14.9c-0.6-0.3-1.3-0.5-2-0.6c-0.3,0-0.6-0.1-0.8-0.2
			c-0.2-0.2-0.3-0.3-0.3-0.5c0-1,0.3-1.7,1-2c0.4-0.3,0.6-0.5,0.6-0.7c0-0.1-0.3-0.3-0.8-0.5c-0.3-0.2-0.5-0.3-0.6-0.5
			c-0.1-0.2-0.1-0.3-0.1-0.4c0-0.3,0.2-0.7,0.5-1.2c0.4-0.6,1-1.1,1.7-1.4c0.6-0.4,1-0.7,1.2-1.1c0.1-0.2,0.3-0.4,0.5-0.3
			c0.5-0.1,0.7,0.2,0.5,1.1c0,0.2,0.1,0.3,0.4,0.4c0.4,0.1,0.8,0.4,1.2,0.8c0.7,0.6,0.7,1.3,0,2.1c-0.4,0.4-0.5,0.7-0.2,0.9
			c0.5,0.5,0.8,0.9,0.8,1.4c0,1.1-0.5,2-1.4,2.8c-0.3,0.2-0.6,0.3-1,0.3C273.3,15.2,272.9,15.1,272.5,14.9z M272.4,4.9
			c-1.2,0.2-1.9,0.2-2.3-0.2c-0.3-0.5-0.2-0.9,0.4-1.4c1.7-1.3,3.3-1.8,4.7-1.5c0-0.1,0-0.2-0.1-0.3c-0.2-0.6-0.1-1,0.3-1.2
			c0.8-0.4,1.5-0.3,2.3,0.2c0.4,0.3,0.5,0.8,0.3,1.2c0,0-0.1,0.1-0.1,0.2c0.2,0,0.5,0,0.8,0c1,0,1.5,0.3,1.6,0.8
			c0,0.4-0.3,0.7-1,0.8c-0.6,0.1-1.2,0.2-1.7,0.4c0,0.9-0.2,1.5-0.5,1.7c-0.3,0.3-0.6,0.2-0.9-0.1c-0.2-0.3-0.4-0.7-0.5-1.2
			C274.1,4.5,273,4.7,272.4,4.9z M275.4,22.9c-1.2,0.6-2.1,0.8-2.6,0.5c-0.6-0.3-0.9-0.8-1-1.5c-0.1-0.8,0.4-1.4,1.5-1.6
			c1.2-0.2,2.3-0.4,3.2-0.7c0.6-0.4,1-0.5,1.1-0.2c0.2,0.2,0.2,0.6-0.1,1.1C277.1,21.4,276.4,22.2,275.4,22.9z M273,11.6
			c-0.1,0-0.2,0.2-0.5,0.5c-0.3,0.4-0.4,0.6-0.4,0.8c0,0.1,0.1,0.2,0.3,0.3c0.2,0.1,0.5,0.2,0.9,0.2c0.2,0,0.3,0,0.3-0.1
			c0.1-0.2,0.2-0.5,0.2-0.8c0-0.2-0.1-0.4-0.3-0.6C273.4,11.7,273.2,11.7,273,11.6z M272.6,8c-0.1,0-0.2,0.1-0.3,0.3
			c-0.1,0.2-0.2,0.5-0.2,0.6c0,0.2,0.1,0.3,0.3,0.4c0.5,0.1,0.8,0.1,1.1-0.1c0.1-0.1,0.2-0.2,0.2-0.4c0-0.2-0.1-0.4-0.4-0.6
			C273,8.1,272.8,8,272.6,8z M279.9,14.8c-1,0.2-1.7,0.2-2,0c-0.5-0.4-0.8-1-0.8-1.9c-0.1-1.2-0.1-2.4-0.2-3.6
			c-0.1-1.1,0-1.8,0.4-2.2c0.4-0.3,1.1-0.4,2.2-0.3c0.5-1.1,0.8-1.6,0.8-1.6c0.1-0.6,0.3-1,0.6-1.1c0.3,0,0.7,0.2,1.1,0.7
			c0.4,0.6,0.4,1.2,0,1.7c-0.1,0.1-0.2,0.2-0.2,0.2c1.5-0.1,2.6,0,3.2,0.5c0.5,0.4,0.7,1,0.6,1.8c-0.1,0.9-0.2,1.9-0.2,2.9
			c0,1.1-0.2,1.9-0.6,2.2c-0.5,0.4-1.3,0.6-2.2,0.4C281.8,14.4,280.9,14.5,279.9,14.8z M283.3,9.6c0-0.6-0.1-0.9-0.2-1
			c-0.2-0.1-1-0.1-2.3-0.1c-1.1,0.1-1.6,0.1-1.8,0.2C279,8.8,279,9,279,9.5c0.4,0,1.2,0,2.4,0C282.3,9.6,282.9,9.6,283.3,9.6z
			 M279,11.4c0.1,0.7,0.2,1.1,0.3,1.2c0.1,0.1,0.2,0.1,0.5,0.1c1.4-0.1,2.3-0.2,2.8-0.2c0.2,0,0.4,0,0.5-0.1c0.1-0.2,0.2-0.5,0.2-1
			c-0.4-0.1-1.1-0.1-2.1-0.1C280.2,11.3,279.4,11.3,279,11.4z M283.4,3.9c-0.5,0.1-0.8,0-1-0.4c-0.2-0.4-0.1-0.9,0.2-1.3
			c0.3-0.4,0.8-0.6,1.5-0.4c0.2,0.1,0.6,0.1,1.1,0.1c0.1,0,0.2,0,0.3,0c0-0.6,0.3-1,0.9-1.2c0.6-0.2,1.1-0.1,1.7,0.4
			c0.3,0.3,0.5,0.6,0.5,0.9c1.2,0,2.4,0.1,3.6,0.2c0.5,0,0.6,0.3,0.3,0.9c-0.4,0.8-1,1.3-1.8,1.8c-0.7,0.4-1.5,0.3-2.4-0.1
			c-0.2-0.1-0.4-0.2-0.7-0.3c-0.3,0.9-0.6,1.5-0.8,1.7c-0.3,0.3-0.7,0.3-1,0c-0.3-0.2-0.4-1-0.4-2.2C284.8,3.7,284.1,3.7,283.4,3.9z
			 M289.1,20.6c1,0.1,1.5,0.4,1.6,1c0.1,0.5,0.1,1-0.2,1.4c-0.5,0.6-1.1,0.8-1.8,0.7c-1.1-0.4-2.2-1.2-3.3-2.5
			c-0.5-0.5-0.6-0.9-0.4-1.1c0.3-0.3,0.6-0.3,1-0.1C286.8,20.3,287.8,20.5,289.1,20.6z M289,14.8c-0.6-0.3-1.3-0.5-2.1-0.6
			c-0.4,0-0.6-0.1-0.8-0.2c-0.2-0.2-0.3-0.4-0.3-0.6c0-0.9,0.4-1.6,1.1-1.9c0.5-0.3,0.7-0.5,0.7-0.7c0-0.1-0.3-0.3-0.8-0.4
			c-0.3-0.1-0.6-0.3-0.7-0.4c-0.1-0.1-0.2-0.2-0.2-0.4c0-0.3,0.2-0.7,0.5-1.1c0.4-0.6,1-1.1,1.8-1.4c0.6-0.3,1-0.7,1.3-1
			c0.1-0.2,0.3-0.4,0.5-0.3c0.5-0.1,0.7,0.3,0.5,1c0,0.2,0.1,0.3,0.4,0.4c0.4,0.2,0.8,0.4,1.2,0.8c0.7,0.6,0.8,1.3,0.1,1.9
			c-0.5,0.5-0.6,0.8-0.3,1c0.6,0.4,0.9,0.9,0.9,1.3c0,1.1-0.5,2-1.5,2.7c-0.3,0.2-0.7,0.3-1,0.3C289.7,15.1,289.3,15,289,14.8z
			 M289.5,11.7c-0.1,0-0.3,0.2-0.6,0.5c-0.3,0.4-0.5,0.6-0.5,0.7s0.1,0.2,0.4,0.2c0.2,0.1,0.5,0.1,0.9,0.1c0.2,0,0.3,0,0.4-0.1
			c0.1-0.2,0.2-0.4,0.2-0.8c0-0.2-0.1-0.4-0.3-0.5C289.9,11.8,289.7,11.7,289.5,11.7z M289,8.2c-0.1,0-0.2,0.1-0.3,0.3
			c-0.1,0.3-0.2,0.5-0.2,0.6c0,0.2,0.1,0.3,0.3,0.3c0.5,0.1,0.9,0.1,1.2-0.1c0.1-0.1,0.2-0.2,0.2-0.3c0-0.2-0.1-0.4-0.4-0.6
			C289.5,8.3,289.2,8.2,289,8.2z"/>
		<path class="st0" d="M303,22.8c-0.9,0.2-1.6,0.2-2.1,0c-0.5-0.3-0.8-1.4-0.9-3.2c0-1.4-0.1-2.5-0.1-3.3c0.1-1.1,0.2-1.8,0.5-2.2
			c0.3-0.4,0.7-0.6,1.2-0.5c0.6,0.1,1.1,0.1,1.6,0.2c4.1-0.3,6.5-0.3,7.2,0.2c0.8,0.4,1,1,0.8,1.9c-0.1,0.4-0.1,0.8-0.1,1.3
			c0.1,2-0.1,3.5-0.6,4.4c-0.2,0.5-0.6,0.9-1.1,1.1c-0.6,0.3-1.4,0.3-2.1,0.2C305.4,22.5,304,22.5,303,22.8z M302.7,15.9
			c-0.2,0.2-0.3,0.8-0.3,2.1c0,1.1,0.1,1.7,0.2,1.9c0.1,0.1,0.5,0.2,1.1,0.2c1.4,0,2.5,0,3.4,0c0.2,0,0.5,0,0.6-0.1
			c0.3-0.2,0.5-1,0.5-2.4c0-1-0.2-1.5-0.4-1.7c-0.2-0.2-1.2-0.3-2.9-0.2C303.8,15.6,303,15.7,302.7,15.9z M310.4,10.5
			c-1.3,0.3-2.1,0.3-2.5,0c-0.6-0.4-1-1.1-0.9-2.2c-0.1-1.7-0.2-2.9-0.2-3.5c-0.2-1.2,0-2.1,0.5-2.5c0.3-0.3,0.8-0.4,1.5-0.4
			c6-0.2,9.3-0.1,10,0.5c0.6,0.5,0.8,1.3,0.7,2.2c-0.2,0.8-0.3,1.6-0.3,2.4c0,1.4-0.2,2.3-0.8,2.7c-0.6,0.5-1.6,0.7-2.7,0.5
			C313.7,10.1,311.9,10.2,310.4,10.5z M309.3,4.2c-0.1,0.2-0.1,0.9,0,2.4c0.1,0.8,0.2,1.3,0.3,1.4c0.1,0.1,0.4,0.1,0.9,0.1l5.8-0.4
			c0.2-0.2,0.3-0.9,0.2-2.1c0-0.9-0.1-1.4-0.2-1.6c-0.3-0.2-1.6-0.2-3.9-0.2C310.5,3.9,309.5,4,309.3,4.2z M318.2,22.9
			c-0.9,0.2-1.6,0.2-2.1,0c-0.5-0.3-0.8-1.4-0.9-3.2c0-1.4-0.1-2.5-0.1-3.3c0.1-1.1,0.2-1.8,0.5-2.2c0.3-0.4,0.7-0.6,1.2-0.5
			c0.6,0.1,1.1,0.1,1.6,0.2c4-0.3,6.4-0.3,7.1,0.2c0.8,0.4,1,1,0.8,1.9c-0.1,0.4-0.1,0.8-0.1,1.3c0.1,2-0.1,3.5-0.6,4.4
			c-0.2,0.5-0.6,0.9-1.1,1.1c-0.6,0.3-1.4,0.3-2.1,0.2C320.6,22.6,319.2,22.6,318.2,22.9z M317.9,16.1c-0.2,0.2-0.3,0.9-0.3,2.1
			c0,1.1,0.1,1.7,0.2,1.9c0.1,0.1,0.5,0.2,1.1,0.2c1.3,0,2.4,0,3.3,0c0.2,0,0.5,0,0.6-0.1c0.3-0.2,0.5-1,0.5-2.4
			c0-1-0.2-1.5-0.4-1.7c-0.2-0.2-1.2-0.3-2.8-0.2C318.9,15.8,318.2,15.9,317.9,16.1z"/>
		<path class="st0" d="M357.8,21c0.9,0,1.4,0.2,1.5,0.5c0.1,0.3-0.3,0.9-1.2,1.9c-0.4,0.4-0.9,0.8-1.6,1.1c-0.8,0.4-1.5,0.4-2.4-0.2
			c-1.4-0.9-3.2-1.4-5.6-1.5c-4.9-0.4-9.6,0-13.9,1.3c-1.5,0.5-2.4,0.6-2.9,0.4c-0.4-0.2-0.6-0.6-0.6-1c0-0.6,0.3-1.2,1-1.9
			c0.6-0.6,1.4-0.9,2.4-1C341.1,20.5,348.8,20.6,357.8,21z M334.1,12.8c-0.5-0.8-0.3-1.5,0.5-2.2c0.4-0.4,1-0.8,1.8-1.1
			c2.6-1.4,4.4-2.1,5.4-2.1c0.6,0,0.9,0.1,1,0.5c0.1,0.4-0.3,0.8-1.1,1.2c-2.3,1.4-4.1,2.7-5.5,3.7
			C335.3,13.4,334.6,13.5,334.1,12.8z M352.7,3.6c1.2,0,1.7,0.2,1.6,0.6c-0.1,0.5-0.6,1-1.5,1.7c-0.5,0.3-1.3,0.4-2.4,0.2
			c-1.4-0.2-2.6-0.3-3.7-0.3c-0.1,1-0.1,1.7-0.1,2.2c0,1.5-0.2,2.4-0.7,2.7c-0.5,0.3-1,0.3-1.3-0.1c-0.4-0.5-0.6-1.7-0.5-3.6
			c0-0.4,0-0.8,0-1.2c-2,0-3.8,0.3-5.5,1c-1.6,0.6-2.6,0.6-3,0c-0.4-0.5-0.4-1.1-0.1-1.7c0.4-0.7,1.1-1.1,2.1-1.4
			c1.1-0.2,2.1-0.2,3.1-0.1c0.4,0,0.9,0.1,1.5,0.1c0.6,0,1.2,0,1.8,0c0-0.4-0.1-0.8-0.2-1.3c-0.1-1,0.2-1.6,1-1.8
			c0.8-0.2,1.3,0,1.8,0.6c0.5,0.7,0.6,1.5,0.5,2.5C348.8,3.6,350.7,3.6,352.7,3.6z M352.4,12.6c0.2,0.3,0.1,0.8-0.2,1.4
			c-0.2,0.4-0.3,1-0.3,1.8c-0.1,0.8-0.2,1.6-0.4,2.3c-0.3,0.9-0.8,1.5-1.3,1.7c-0.5,0.2-1.1,0.3-1.9,0.1c-0.9-0.2-2.1-0.4-3.5-0.3
			c-1.6,0.1-2.7,0.2-3.3,0.5c-0.6,0.3-1,0.3-1.4,0.1c-0.5-0.3-0.8-1-1-2c-0.4-2.6-0.6-4.1-0.8-4.5c-0.3-0.6-0.3-1-0.2-1.3
			c0.2-0.4,0.8-0.6,1.6-0.7C347.1,10.9,351.3,11.2,352.4,12.6z M349.7,14.5c0-0.1,0-0.1,0-0.2c0-0.4,0-0.6-0.2-0.8
			c-0.3-0.2-0.9-0.3-1.7-0.3c-3.2,0-5.3,0.1-6.4,0.2c-0.4,0.1-0.6,0.2-0.7,0.4c-0.1,0.1-0.1,0.4-0.1,0.7c0.9,0.1,2.4,0.1,4.5,0.1
			C347.4,14.6,349,14.6,349.7,14.5z M340.7,16.3c0.1,0.8,0.3,1.2,0.6,1.3c0.2,0.1,0.6,0.1,1.2,0c1.9-0.1,3.5-0.2,4.9-0.1
			c0.9,0.1,1.5,0,1.7-0.1c0.2-0.1,0.3-0.5,0.5-1.1c-0.8-0.1-2.2-0.1-4.5-0.1C342.9,16.2,341.5,16.3,340.7,16.3z M347,8
			c0.4-0.7,1-0.9,1.9-0.6c0.3,0.1,0.8,0.3,1.2,0.5c3,1.7,4.7,3,5.4,3.9c0.3,0.4,0.3,0.8,0,1c-0.2,0.2-0.7,0.1-1.4-0.2
			c-2.5-1.3-4.5-2.3-6.1-2.9C347.1,9.3,346.7,8.8,347,8z"/>
		<path class="st0" d="M363.1,16.6c0.4-0.2,0.8-0.2,1.2,0c0.3,0.1,0.5,0.4,0.5,0.9c0,0.2-0.1,0.7-0.3,1.2c-0.8,1.7-1.2,2.5-1.3,2.6
			c-0.1,0-0.2,0-0.2-0.2c-0.2-1-0.3-2-0.3-3.2C362.6,17.4,362.8,16.9,363.1,16.6z M372.4,12c0,0,0,0.1,0,0.2c0.4,0,0.8,0,1.1,0.1
			c1.1,0.1,1.9,0.4,2.3,0.6c0.7,0.5,1,1.1,0.9,1.6c0,0.3-0.2,0.8-0.4,1.4c-0.2,0.7-0.4,1.3-0.4,2c-0.1,1.3-0.5,2.5-1,3.7
			c-0.7,1.3-1.4,1.9-2.1,1.9c-0.8,0-0.9-0.5-0.5-1.4c1.2-2.8,1.7-5,1.6-6.5c-0.1-0.7-0.5-1.2-1-1.6c-0.2-0.1-0.6-0.2-1.2-0.2
			c-2-0.1-3.8,0.3-5.6,1.3c-1.2,0.5-2,0.4-2.5-0.2c-0.5-0.6-0.2-1.3,0.8-2.1c0.3-0.2,0.4-0.9,0.4-2c0-3.8,0-6.5-0.1-7.9
			c-0.1-0.9,0.1-1.6,0.5-2c0.4-0.4,1-0.5,1.9-0.4c0.6,0.1,2.6,0.1,6,0.1c1.7,0,2.7,0.1,2.9,0.4c0.3,0.4,0.3,0.8,0,1.1
			c-0.2,0.3-1.3,0.5-3.2,0.4c-0.1,0.2-0.2,0.8-0.2,1.8c1.5,0,2.4,0.2,2.7,0.5c0.2,0.2,0.3,0.6,0.2,1c-0.1,0.4-0.6,0.6-1.5,0.6
			c-0.5,0-1,0-1.4,0c0,0.5,0,1.1,0,1.6c1.2,0,2,0.1,2.4,0.5c0.2,0.2,0.3,0.6,0.2,1c-0.1,0.4-0.6,0.6-1.5,0.6c-0.4,0-0.7,0-1,0
			C372.3,11,372.3,11.7,372.4,12z M365.6,16.6c0.3-0.3,0.7-0.4,1.1-0.2c0.3,0.1,0.5,0.3,0.6,0.7c0.1,0.2,0,0.6-0.1,1.1
			c-0.4,1.5-0.6,2.4-0.8,2.4c-0.1,0.1-0.2,0-0.3-0.1c-0.4-1-0.7-1.8-0.9-2.5C365.2,17.4,365.2,16.9,365.6,16.6z M366.7,10.3
			c0,0.3,0,0.6,0,0.9c0.1,0.9,0.5,1.3,1.4,1.2c0.5-0.1,1.1-0.2,1.6-0.2c0-0.2,0-0.4,0.1-0.5c0.1-0.3,0.1-0.9,0.1-1.7
			c-0.8,0-1.4,0.1-2,0.2C367.5,10.3,367.1,10.3,366.7,10.3z M369.9,8c0.1-0.5,0.1-1,0-1.5c-1,0.1-2,0.2-2.9,0.3
			c0,0.5-0.1,0.9-0.1,1.4c0.4-0.1,1-0.2,1.8-0.2C369.1,7.9,369.5,7.9,369.9,8z M369.8,2.6c-1.2,0-2,0.1-2.2,0.2
			c-0.4,0.3-0.6,0.8-0.6,1.6c0.6-0.2,1.5-0.2,2.8-0.1c0-0.7,0-1.3-0.1-1.5C369.8,2.7,369.8,2.6,369.8,2.6z M368,16.3
			c0.3-0.3,0.7-0.4,1.1-0.2c0.3,0.1,0.5,0.3,0.6,0.7c0,0.2,0,0.5-0.1,1c-0.4,1.5-0.6,2.3-0.7,2.4c-0.1,0.1-0.2,0-0.3-0.1
			c-0.3-0.5-0.6-1.3-0.9-2.3C367.7,17.1,367.8,16.7,368,16.3z M370.5,16.1c0.3-0.3,0.7-0.4,1.2-0.2c0.3,0.1,0.5,0.3,0.6,0.7
			c0.1,0.2,0,0.5-0.1,1c-0.3,1.4-0.6,2.1-0.7,2.3c-0.1,0.1-0.2,0-0.3-0.1c-0.3-0.6-0.6-1.4-0.9-2.2
			C370.2,16.9,370.3,16.4,370.5,16.1z M378,9.6c-0.7,0.4-1.3,0.5-1.8,0.3c-0.6-0.4-1-0.7-1-1.1c0-0.5,0.2-0.8,0.6-1.1
			c3.8-1.9,5.5-4.1,5.1-6.3c0-0.4,0-0.7,0.2-0.9c0.3-0.3,0.6-0.4,1.1-0.2c0.6,0.2,1,0.5,1.2,1.1c0.1,0.3,0.2,0.6,0.2,0.9
			c0.2,0.2,0.5,0.4,0.7,0.6c0.4,0.4,1.3,1.1,2.8,2c2.1,1.4,3.7,2.4,4.5,2.9c0.5,0.2,0.7,0.4,0.7,0.6c0,0.3-0.3,0.6-0.8,0.9
			c-0.1,0.1-0.2,0.1-0.3,0.2c-2.5,1.1-3.9,0.8-4.3-0.9c-0.4-1.1-1.1-2.1-2.3-3c-0.1-0.1-0.8-0.4-2-0.9C381.8,6.6,380.2,8.3,378,9.6z
			 M375.7,23.3c-0.6-0.1-0.6-0.5,0-1.2c0.8-0.9,1.3-1.7,1.6-2.3c0.2-0.5,0.4-0.9,0.4-1.2c0.1-0.6,0.4-1,0.8-1.3
			c0.4-0.3,0.9-0.1,1.3,0.4c0.2,0.3,0.3,0.6,0.3,1c0.1,0,0.2,0.2,0.6,0.5c1,1,1.5,1.6,1.5,2.1c0,0.4-0.1,0.6-0.4,0.7
			c-0.4,0.1-0.8-0.1-1.3-0.5c-0.5-0.4-1-0.6-1.4-0.7C377.6,22.5,376.5,23.4,375.7,23.3z M380.1,16.8c-1.2,0.2-2,0.2-2.2,0.1
			c-0.5-0.3-0.8-1.4-0.8-3.2c0-0.1,0-0.2-0.1-0.3c0-0.6,0.1-1.1,0.4-1.4c0.2-0.2,0.6-0.3,1.1-0.3c0.2,0,0.4,0,0.6,0
			c1.9-0.2,3-0.1,3.5,0.4c0.4,0.4,0.6,0.9,0.5,1.7c-0.1,0.2-0.2,0.4-0.2,0.6c0,1-0.2,1.7-0.6,2.1c-0.5,0.4-1.2,0.5-2.1,0.4
			C380.3,16.7,380.2,16.8,380.1,16.8z M379,13.3c0,0.1,0,0.4,0.1,1c0.1,0.4,0.1,0.6,0.2,0.6c0.1,0,0.1,0,0.2,0l1.5-0.2
			c0.1-0.1,0.1-0.4,0.1-0.8c0-0.4,0-0.6-0.1-0.6c-0.1,0-0.5,0-1.1,0C379.3,13.3,379,13.3,379,13.3z M383.1,8.2c2,0,3.1,0.2,3.3,0.5
			c0.1,0.2,0.1,0.5,0,0.9c-0.1,0.3-0.3,0.5-0.6,0.8c-0.1,0-0.2,0.1-0.3,0c-0.9-0.1-1.6-0.2-2.2-0.2c-0.4,0-0.8,0.1-1.1,0.1
			c-1.4,0.3-2.3,0.3-2.6,0c-0.4-0.4-0.4-0.9,0-1.3c0.3-0.3,0.9-0.5,1.9-0.6C382,8.2,382.5,8.2,383.1,8.2z M391.6,20.2
			c0.8,0.1,1,0.4,0.6,1.1c-0.4,0.6-1,1.1-1.8,1.4c-0.9,0.4-1.5,0.3-1.9-0.1c-0.8-1-1.5-1.6-2.3-1.9c-1.5,1.6-2.7,2.4-3.4,2.4
			c-0.5-0.1-0.5-0.5,0.1-1.2c0.8-0.9,1.3-1.6,1.6-2.3c0.6-1.4,1-2.2,1.3-2.3c0.5-0.3,0.9-0.1,1.3,0.5c0.3,0.5,0.4,0.9,0.2,1.4
			C388.7,19.9,390.1,20.3,391.6,20.2z M386.8,16.6c-1,0.3-1.7,0.4-2.1,0.1c-0.5-0.3-0.8-1.4-0.8-3.2c0-0.1,0-0.2-0.1-0.3
			c0-0.6,0.1-1.1,0.4-1.4c0.2-0.2,0.6-0.3,1.1-0.3h0c2.1-0.3,3.4-0.2,4,0.3c0.4,0.4,0.6,0.9,0.5,1.7c-0.1,0.2-0.2,0.4-0.2,0.6
			c0,1-0.2,1.7-0.6,2.1c-0.5,0.4-1.2,0.5-2.1,0.4C387.1,16.6,387,16.6,386.8,16.6z M385.8,13.2c0,0.1,0,0.4,0.1,1
			c0.1,0.4,0.1,0.6,0.2,0.6c0,0,0.1,0,0.2,0l1.4-0.2c0.1-0.1,0.1-0.4,0.1-0.8c0-0.4,0-0.6-0.1-0.6c-0.1,0-0.5,0-1,0
			C386.1,13.2,385.8,13.2,385.8,13.2z"/>
		<path class="st0" d="M410.5,14c0,2.7,0,4.6,0.1,5.7c0.2,1.8,0,3-0.6,3.6c-0.5,0.5-1.1,0.5-1.7-0.2c-0.4-0.5-0.6-1.4-0.4-2.7
			c0.1-2.1,0.1-4.2,0.2-6.4c-2.5,0-4.4,0.2-5.9,0.5c-1.3,0.3-2.2,0.3-2.5,0c-0.7-0.4-1-1.2-1-2.3c-0.1-1.1-0.1-2.3-0.2-3.4
			c-0.1-1.2,0-2.1,0.5-2.6c0.3-0.3,0.8-0.4,1.5-0.4c1.7,0,3.5-0.1,5.5-0.2c0.7,0,1.4-0.1,2.1,0c0-1.1,0-1.9-0.1-2.3
			c-0.1-1.2,0.1-1.9,0.5-2.3c0.7-0.6,1.3-0.6,1.8,0c0.5,0.6,0.7,1.5,0.6,2.7c0,0.6-0.1,1.2-0.1,1.8c5.2-0.1,8.2,0.1,8.9,0.7
			c0.6,0.5,0.9,1.3,0.8,2.3c-0.2,0.7-0.3,1.5-0.3,2.3c0,1.4-0.3,2.4-0.8,2.8c-0.7,0.6-1.6,0.7-2.8,0.5C415.6,14,413.7,14,410.5,14z
			 M401,8.1c-0.1,0.1-0.1,0.9,0,2.3c0.1,0.8,0.2,1.3,0.3,1.4c0.3,0.2,1,0.3,2,0.3c1.7-0.1,3.2-0.1,4.6-0.2c0-1.5,0-3,0-4.5
			C403.7,7.5,401.4,7.7,401,8.1z M410.6,7.4c-0.1,1.4-0.1,2.9-0.1,4.5c2-0.1,3.4-0.1,4.4,0c1.2,0,1.9-0.1,2.2-0.4
			c0.2-0.2,0.3-0.9,0.2-2c0-0.9-0.1-1.4-0.2-1.5C416.6,7.5,414.4,7.4,410.6,7.4z"/>
		<path class="st0" d="M432.1,8.3c0.4,0.3,0.3,0.8-0.1,1.6c-0.9,1.3-1.5,2.5-2,3.6c-0.2,0.9-0.6,1.4-1.1,1.6
			c-0.5,0.1-1.1-0.2-1.7-0.9c-0.4-0.5-0.6-0.9-0.5-1.3c0.1-0.4,0.4-0.8,1-1.1c0.8-0.5,1.7-1.5,2.9-3C431.3,8.3,431.8,8.1,432.1,8.3z
			 M436.6,7.1c0.9,0.2,1.3,0.8,1.3,1.7c0,0.9-0.3,1.5-0.8,1.8c-0.5,0.3-0.7,0.8-0.8,1.5c0,0.7,0.1,1.3,0.4,1.7
			c0.5,0.7,1.3,1.3,2.6,1.8c3.3,1.2,6.5,1.6,9.4,1.3c1.4-0.1,3.2-0.8,5.4-2.3c0.8-0.5,1.2-0.4,1.1,0.2c-0.1,0.9-1.2,2.6-3.5,5
			c-1.1,1.1-2.5,1.5-4.1,1.1c-3-0.7-5.8-1.6-8.6-2.9c-2.7-1.3-4.2-2.4-4.5-3.4c-0.3-0.9-0.2-3.3,0.4-7C435,7.1,435.6,6.9,436.6,7.1z
			 M444.5,4.5c0.8,0.4,1.2,0.9,1.2,1.5s-0.3,1.1-0.9,1.4c-0.4,0.2-0.9,0.7-1.5,1.3c-1.2,1.2-2,1.8-2.4,1.9c-0.5,0.1-0.7,0-0.7-0.3
			c0-0.3,0.4-1.1,1.1-2.4c0.9-1.7,1.4-2.7,1.6-3.1C443.2,4.2,443.7,4.1,444.5,4.5z M449.6,8.7c0.7,0.5,1,1.1,1,1.7
			c-0.1,0.6-0.5,1-1.2,1.3c-0.4,0.1-0.9,0.4-1.6,0.9c-1.3,0.9-2.2,1.3-2.5,1.3c-0.5,0-0.7-0.1-0.6-0.5c0.1-0.4,1.2-1.9,3.3-4.6
			C448.4,8.1,448.9,8.1,449.6,8.7z"/>
	</g>
	<path class="st1" d="M112.6,38.2h-4.6v-2.3h11.7v2.3h-4.6v14.9h-2.5L112.6,38.2L112.6,38.2z"/>
	<path class="st1" d="M125.5,52.1L125.5,52.1c-0.3,0.4-0.6,0.7-1.1,0.9c-0.5,0.2-1.1,0.3-1.9,0.3c-1.3,0-2.3-0.4-3.1-1.1
		c-0.8-0.7-1.1-1.6-1.1-2.7c0-1,0.3-1.9,1-2.6c0.7-0.7,1.6-1,2.9-1.1h3.3v-1.3c0-1.1-0.8-1.6-2.4-1.6c-0.6,0-1.1,0.1-1.4,0.2
		c-0.4,0.2-0.6,0.4-0.8,0.8l-1.9-1.5c0.9-1.2,2.2-1.8,4-1.8c1.5,0,2.7,0.3,3.6,0.9c0.9,0.6,1.3,1.7,1.4,3.2v8.4h-2.4L125.5,52.1
		L125.5,52.1z M125.5,47.9h-2.9c-1.4,0-2.1,0.5-2.1,1.5c0,0.4,0.2,0.8,0.5,1.1c0.3,0.3,0.9,0.5,1.7,0.5c1,0,1.7-0.1,2.1-0.4
		c0.4-0.3,0.6-0.8,0.6-1.8L125.5,47.9L125.5,47.9z"/>
	<path class="st1" d="M131.4,35.9h2.4v2.5h-2.4V35.9z M131.4,40.9h2.4v12.3h-2.4V40.9z"/>
	<path class="st1" d="M144.1,44.6L144.1,44.6l-2.5,8.6h-2.1l-3.8-12.3h2.5l2.3,8.6h0.1l2.7-8.6h1.7l2.7,8.6h0.1l2.3-8.6h2.5
		l-3.8,12.3h-2.1L144.1,44.6z"/>
	<path class="st1" d="M160.9,52.1L160.9,52.1c-0.3,0.4-0.6,0.7-1.1,0.9c-0.5,0.2-1.1,0.3-1.9,0.3c-1.3,0-2.4-0.4-3.1-1.1
		c-0.8-0.7-1.1-1.6-1.1-2.7c0-1,0.3-1.9,1-2.6c0.7-0.7,1.6-1,2.9-1.1h3.3v-1.3c0-1.1-0.8-1.6-2.4-1.6c-0.6,0-1.1,0.1-1.4,0.2
		c-0.4,0.2-0.6,0.4-0.9,0.8l-1.9-1.5c0.9-1.2,2.2-1.8,4-1.8c1.5,0,2.7,0.3,3.6,0.9c0.9,0.6,1.4,1.7,1.4,3.2v8.4h-2.4L160.9,52.1
		L160.9,52.1z M160.9,47.9H158c-1.4,0-2.1,0.5-2.1,1.5c0,0.4,0.2,0.8,0.5,1.1c0.3,0.3,0.9,0.5,1.7,0.5c1,0,1.7-0.1,2.1-0.4
		c0.4-0.3,0.6-0.8,0.6-1.8V47.9z"/>
	<path class="st1" d="M166.7,40.9h2.4v1.3h0c0.8-1,1.8-1.5,3.1-1.5c1,0,1.9,0.4,2.7,1.1c0.8,0.7,1.2,1.8,1.3,3.2v8.1h-2.4v-7.3
		c0-0.9-0.2-1.5-0.7-2c-0.4-0.5-1-0.7-1.7-0.7c-0.7,0-1.2,0.2-1.7,0.7c-0.4,0.5-0.7,1.1-0.7,2v7.3h-2.4L166.7,40.9L166.7,40.9z"/>
	<path class="st1" d="M197,48.3c-0.4,1.6-1.1,2.8-2.1,3.7c-1.1,0.8-2.3,1.3-3.8,1.3c-1.3,0-2.4-0.4-3.3-1c-0.9-0.6-1.5-1.3-1.9-2.1
		c-0.1-0.3-0.2-0.5-0.3-0.7c-0.1-0.2-0.2-0.5-0.2-0.9c-0.1-0.7-0.2-2-0.2-4c0-2,0.1-3.3,0.2-4c0.1-0.7,0.3-1.2,0.6-1.6
		c0.4-0.8,1.1-1.5,1.9-2.1c0.9-0.6,2-1,3.3-1c1.6,0,2.9,0.5,3.9,1.5c1,1,1.6,2.2,1.9,3.6h-2.7c-0.2-0.7-0.6-1.3-1.1-1.8
		c-0.6-0.5-1.2-0.7-2.1-0.7c-0.6,0-1.1,0.1-1.5,0.4c-0.4,0.2-0.8,0.5-1.1,0.9c-0.3,0.4-0.6,0.8-0.6,1.4c-0.1,0.6-0.2,1.8-0.2,3.5
		s0.1,2.8,0.2,3.5c0.1,0.6,0.3,1.1,0.6,1.5c0.3,0.3,0.6,0.6,1.1,0.9c0.4,0.3,0.9,0.4,1.5,0.4c1.4,0,2.5-0.8,3.2-2.4
		C194.3,48.3,197,48.3,197,48.3z"/>
	<path class="st1" d="M200.7,47.9c0,1,0.3,1.7,0.8,2.2c0.5,0.5,1.2,0.8,2,0.8c1,0,1.8-0.4,2.6-1.2l1.7,1.5c-1.2,1.3-2.6,2-4.3,2
		c-0.6,0-1.2-0.1-1.8-0.3c-0.3-0.1-0.6-0.2-0.9-0.4c-0.3-0.2-0.6-0.3-0.8-0.5c-0.5-0.5-0.9-1.1-1.2-1.9c-0.3-0.8-0.5-1.8-0.5-3.1
		c0-1.2,0.1-2.2,0.4-3c0.3-0.8,0.7-1.5,1.1-1.9c0.5-0.5,1-0.8,1.6-1c0.6-0.2,1.1-0.3,1.7-0.3c1.4,0,2.5,0.5,3.4,1.4
		c0.9,0.9,1.4,2.2,1.4,3.8v2L200.7,47.9L200.7,47.9z M205.8,45.9c0-1-0.3-1.7-0.8-2.2c-0.5-0.5-1.1-0.7-1.8-0.7s-1.3,0.2-1.8,0.7
		c-0.4,0.5-0.7,1.2-0.8,2.2H205.8z"/>
	<path class="st1" d="M211.1,40.9h2.4v1.3h0c0.8-1,1.8-1.5,3.1-1.5c1,0,1.9,0.4,2.7,1.1c0.8,0.7,1.2,1.8,1.3,3.2v8.1h-2.4v-7.3
		c0-0.9-0.2-1.5-0.7-2c-0.4-0.5-1-0.7-1.7-0.7c-0.7,0-1.2,0.2-1.7,0.7c-0.4,0.5-0.7,1.1-0.7,2v7.3h-2.4L211.1,40.9L211.1,40.9z"/>
	<path class="st1" d="M224.2,37.1h2.4v3.7h1.7v1.9h-1.7v7.2c0,0.6,0.3,0.9,0.9,0.9h0.9v2.3h-1.2c-0.8,0-1.5-0.3-2.1-0.8
		c-0.6-0.5-0.8-1.2-0.8-2.2v-7.3H223v-1.9h1.2V37.1z"/>
	<path class="st1" d="M232.6,47.9c0,1,0.3,1.7,0.8,2.2c0.5,0.5,1.2,0.8,2,0.8c1,0,1.8-0.4,2.6-1.2l1.7,1.5c-1.2,1.3-2.6,2-4.3,2
		c-0.6,0-1.2-0.1-1.8-0.3c-0.3-0.1-0.6-0.2-0.9-0.4c-0.3-0.2-0.6-0.3-0.8-0.5c-0.5-0.5-0.9-1.1-1.2-1.9c-0.3-0.8-0.5-1.8-0.5-3.1
		c0-1.2,0.1-2.2,0.4-3c0.3-0.8,0.7-1.5,1.1-1.9c0.5-0.5,1-0.8,1.6-1c0.6-0.2,1.1-0.3,1.7-0.3c1.4,0,2.5,0.5,3.4,1.4
		c0.9,0.9,1.4,2.2,1.4,3.8v2L232.6,47.9L232.6,47.9z M237.6,45.9c0-1-0.3-1.7-0.8-2.2c-0.5-0.5-1.1-0.7-1.8-0.7s-1.3,0.2-1.8,0.7
		c-0.4,0.5-0.7,1.2-0.8,2.2H237.6z"/>
	<path class="st1" d="M242.9,40.9h2.4v1.3h0.1c0.8-1,1.8-1.5,3.1-1.5c0.9,0,1.8,0.3,2.5,0.9l-1.7,2.1c-0.5-0.4-1-0.6-1.6-0.6
		c-0.6,0-1.1,0.2-1.6,0.6c-0.5,0.4-0.7,1-0.8,2v7.4h-2.4L242.9,40.9L242.9,40.9z"/>
	<path class="st1" d="M258.3,35.9h10.7v2.5h-8.1v5.1h6.9v2.3h-6.9v7.4h-2.5V35.9z"/>
	<path class="st1" d="M270,47c0-1.3,0.1-2.3,0.3-3c0.2-0.7,0.5-1.2,1-1.7c0.3-0.4,0.8-0.8,1.4-1.1c0.6-0.3,1.3-0.5,2.2-0.5
		c0.9,0,1.7,0.2,2.3,0.5c0.6,0.3,1,0.7,1.3,1.1c0.5,0.5,0.8,1,1,1.7c0.2,0.7,0.3,1.7,0.3,3s-0.1,2.3-0.3,3c-0.2,0.7-0.5,1.3-1,1.8
		c-0.1,0.2-0.3,0.4-0.6,0.5c-0.2,0.2-0.5,0.4-0.8,0.5c-0.6,0.3-1.3,0.5-2.3,0.5c-0.9,0-1.6-0.2-2.2-0.5c-0.6-0.3-1-0.7-1.4-1
		c-0.4-0.5-0.8-1.1-1-1.8C270.1,49.3,270,48.3,270,47z M277.4,47c0-0.9,0-1.5-0.1-1.9c-0.1-0.4-0.2-0.7-0.5-1
		c-0.2-0.3-0.4-0.5-0.8-0.7c-0.3-0.2-0.7-0.2-1.1-0.2c-0.4,0-0.8,0.1-1.1,0.2c-0.3,0.2-0.6,0.4-0.8,0.7c-0.2,0.3-0.4,0.6-0.5,1
		c-0.1,0.4-0.1,1-0.1,1.9c0,0.8,0,1.5,0.1,1.9c0.1,0.4,0.2,0.8,0.5,1.1c0.2,0.2,0.5,0.5,0.8,0.6c0.3,0.2,0.7,0.3,1.1,0.3
		c0.4,0,0.8-0.1,1.1-0.3c0.3-0.2,0.6-0.4,0.8-0.6c0.2-0.3,0.4-0.7,0.5-1.1C277.4,48.5,277.4,47.9,277.4,47z"/>
	<path class="st1" d="M282.7,40.9h2.4v1.3h0c0.8-1,1.8-1.5,3.1-1.5c1,0,1.8,0.3,2.5,0.9l-1.7,2.1c-0.5-0.4-1-0.6-1.6-0.6
		c-0.6,0-1.1,0.2-1.6,0.6c-0.5,0.4-0.7,1-0.8,2v7.4h-2.4L282.7,40.9L282.7,40.9z"/>
	<path class="st1" d="M298.1,35.9h5.8c2.3,0,4,1,5.1,2.9c0.4,0.6,0.7,1.3,0.8,2c0.1,0.7,0.1,1.9,0.1,3.7c0,1.8-0.1,3.1-0.2,3.9
		c-0.1,0.4-0.1,0.7-0.3,1c-0.1,0.3-0.3,0.6-0.5,0.9c-0.5,0.8-1.2,1.5-2,2c-0.9,0.6-1.9,0.8-3.2,0.8h-5.7L298.1,35.9L298.1,35.9z
		 M300.7,50.7h3c1.4,0,2.5-0.5,3.1-1.5c0.3-0.4,0.5-0.8,0.5-1.4c0.1-0.6,0.1-1.6,0.1-3.2c0-1.5,0-2.6-0.1-3.2
		c-0.1-0.7-0.3-1.2-0.6-1.6c-0.7-1-1.7-1.5-3-1.5h-3V50.7z"/>
	<path class="st1" d="M313.2,40.9h2.4v1.3h0c0.8-1,1.8-1.5,3.1-1.5c1,0,1.8,0.3,2.5,0.9l-1.7,2.1c-0.5-0.4-1-0.6-1.6-0.6
		c-0.6,0-1.1,0.2-1.6,0.6c-0.5,0.4-0.7,1-0.8,2v7.4h-2.4L313.2,40.9L313.2,40.9z"/>
	<path class="st1" d="M322.3,40.9h2.4v7.3c0,0.8,0.2,1.5,0.7,1.9c0.4,0.5,1,0.7,1.7,0.7c0.7,0,1.2-0.2,1.7-0.7
		c0.4-0.5,0.7-1.1,0.7-1.9v-7.3h2.4v12.3h-2.4v-1.3h0c-0.8,1-1.8,1.5-3.1,1.5c-1,0-1.9-0.4-2.7-1.1c-0.9-0.7-1.3-1.8-1.3-3.1
		L322.3,40.9L322.3,40.9z"/>
	<path class="st1" d="M342,51.9c-0.8,0.9-1.8,1.4-3.1,1.4c-0.8,0-1.4-0.2-1.9-0.5c-0.5-0.3-0.9-0.6-1.2-1c-0.3-0.4-0.5-0.9-0.7-1.5
		c-0.1-0.6-0.2-1.7-0.2-3.3c0-1.7,0.1-2.8,0.2-3.3c0.1-0.6,0.4-1.1,0.7-1.5c0.3-0.4,0.7-0.7,1.2-1c0.5-0.3,1.1-0.4,1.9-0.5
		c1.2,0,2.2,0.5,3.1,1.5v-1.3h2.4v12c0,1.8-0.5,3.2-1.5,4.1c-1,0.9-2.2,1.3-3.6,1.3c-1.6,0-3-0.7-4.1-2l1.9-1.5
		c0.3,0.3,0.7,0.5,1,0.8c0.4,0.2,0.8,0.3,1.3,0.4c0.8,0,1.5-0.2,2-0.7c0.5-0.5,0.7-1.1,0.8-2L342,51.9L342,51.9z M337.2,47
		c0,0.9,0,1.6,0.1,1.9c0,0.4,0.2,0.7,0.4,0.9c0.2,0.2,0.4,0.4,0.7,0.6c0.3,0.2,0.7,0.3,1.2,0.3c0.5,0,0.9-0.1,1.2-0.3
		c0.3-0.2,0.5-0.4,0.7-0.6c0.2-0.2,0.3-0.5,0.4-0.9c0-0.4,0.1-1,0.1-1.9c0-1,0-1.6-0.1-2c-0.1-0.4-0.2-0.7-0.4-0.9
		c-0.2-0.2-0.4-0.4-0.7-0.7c-0.3-0.2-0.7-0.3-1.2-0.3c-0.5,0-0.9,0.1-1.2,0.3c-0.3,0.2-0.6,0.4-0.7,0.7c-0.2,0.2-0.3,0.5-0.4,0.9
		S337.2,46.1,337.2,47z"/>
	<path class="st1" d="M353.9,35.9h10.7v2.5h-8.1v4.9h6.9v2.3h-6.9v5.1h8.1v2.5h-10.7V35.9z"/>
	<path class="st1" d="M365.4,40.9h2.5l2.8,8.6h0l2.8-8.6h2.5l-4.4,12.3h-2L365.4,40.9z"/>
	<path class="st1" d="M384.1,52.1L384.1,52.1c-0.3,0.4-0.6,0.7-1.1,0.9c-0.5,0.2-1.1,0.3-1.9,0.3c-1.3,0-2.4-0.4-3.1-1.1
		c-0.8-0.7-1.1-1.6-1.1-2.7c0-1,0.3-1.9,1-2.6c0.7-0.7,1.6-1,2.9-1.1h3.3v-1.3c0-1.1-0.8-1.6-2.4-1.6c-0.6,0-1.1,0.1-1.4,0.2
		c-0.4,0.2-0.6,0.4-0.9,0.8l-1.9-1.5c0.9-1.2,2.2-1.8,4-1.8c1.5,0,2.7,0.3,3.6,0.9c0.9,0.6,1.4,1.7,1.4,3.2v8.4H384L384.1,52.1
		L384.1,52.1z M384.1,47.9h-2.9c-1.4,0-2.1,0.5-2.1,1.5c0,0.4,0.2,0.8,0.5,1.1c0.3,0.3,0.9,0.5,1.7,0.5c1,0,1.7-0.1,2.1-0.4
		c0.4-0.3,0.6-0.8,0.6-1.8V47.9z"/>
	<path class="st1" d="M389.9,35.9h2.4V50c0,0.6,0.3,0.8,0.9,0.8h0.8v2.3H393c-0.9,0-1.6-0.2-2.1-0.7c-0.6-0.5-0.9-1.2-0.9-2.3
		L389.9,35.9L389.9,35.9z"/>
	<path class="st1" d="M396.2,40.9h2.4v7.3c0,0.8,0.2,1.5,0.7,1.9c0.4,0.5,1,0.7,1.7,0.7c0.7,0,1.2-0.2,1.7-0.7
		c0.4-0.5,0.7-1.1,0.7-1.9v-7.3h2.4v12.3h-2.4v-1.3h0c-0.8,1-1.8,1.5-3.1,1.5c-1,0-1.9-0.4-2.7-1.1c-0.9-0.7-1.3-1.8-1.3-3.1V40.9z"
		/>
	<path class="st1" d="M415.4,52.1L415.4,52.1c-0.3,0.4-0.6,0.7-1.1,0.9c-0.5,0.2-1.1,0.3-1.9,0.3c-1.3,0-2.4-0.4-3.1-1.1
		c-0.8-0.7-1.1-1.6-1.1-2.7c0-1,0.3-1.9,1-2.6c0.7-0.7,1.6-1,2.9-1.1h3.3v-1.3c0-1.1-0.8-1.6-2.4-1.6c-0.6,0-1.1,0.1-1.4,0.2
		c-0.4,0.2-0.6,0.4-0.9,0.8l-1.9-1.5c0.9-1.2,2.2-1.8,4-1.8c1.5,0,2.7,0.3,3.6,0.9c0.9,0.6,1.4,1.7,1.4,3.2v8.4h-2.4L415.4,52.1
		L415.4,52.1z M415.4,47.9h-2.9c-1.4,0-2.1,0.5-2.1,1.5c0,0.4,0.2,0.8,0.5,1.1c0.3,0.3,0.9,0.5,1.7,0.5c1,0,1.7-0.1,2.1-0.4
		c0.4-0.3,0.6-0.8,0.6-1.8L415.4,47.9L415.4,47.9z"/>
	<path class="st1" d="M421.4,37.1h2.4v3.7h1.7v1.9h-1.7v7.2c0,0.6,0.3,0.9,0.9,0.9h0.9v2.3h-1.2c-0.8,0-1.5-0.3-2.1-0.8
		c-0.5-0.5-0.8-1.2-0.8-2.2v-7.3h-1.2v-1.9h1.2L421.4,37.1L421.4,37.1z"/>
	<path class="st1" d="M428,35.9h2.4v2.5H428V35.9z M428,40.9h2.4v12.3H428V40.9z"/>
	<path class="st1" d="M433.2,47c0-1.3,0.1-2.3,0.3-3c0.2-0.7,0.5-1.2,1-1.7c0.3-0.4,0.8-0.8,1.4-1.1c0.6-0.3,1.3-0.5,2.2-0.5
		c0.9,0,1.7,0.2,2.3,0.5c0.6,0.3,1,0.7,1.3,1.1c0.5,0.5,0.8,1,1,1.7c0.2,0.7,0.3,1.7,0.3,3s-0.1,2.3-0.3,3c-0.2,0.7-0.5,1.3-1,1.8
		c-0.1,0.2-0.3,0.4-0.6,0.5c-0.2,0.2-0.5,0.4-0.8,0.5c-0.6,0.3-1.3,0.5-2.3,0.5c-0.9,0-1.6-0.2-2.2-0.5c-0.6-0.3-1-0.7-1.4-1
		c-0.4-0.5-0.8-1.1-1-1.8C433.3,49.3,433.2,48.3,433.2,47z M440.6,47c0-0.9,0-1.5-0.1-1.9c-0.1-0.4-0.2-0.7-0.5-1
		c-0.2-0.3-0.4-0.5-0.8-0.7c-0.3-0.2-0.7-0.2-1.1-0.2c-0.4,0-0.8,0.1-1.1,0.2c-0.3,0.2-0.6,0.4-0.8,0.7c-0.2,0.3-0.4,0.6-0.5,1
		c-0.1,0.4-0.1,1-0.1,1.9c0,0.8,0,1.5,0.1,1.9c0.1,0.4,0.2,0.8,0.5,1.1c0.2,0.2,0.5,0.5,0.8,0.6c0.3,0.2,0.7,0.3,1.1,0.3
		c0.4,0,0.8-0.1,1.1-0.3c0.3-0.2,0.6-0.4,0.8-0.6c0.2-0.3,0.4-0.7,0.5-1.1C440.5,48.5,440.6,47.9,440.6,47z"/>
	<path class="st1" d="M445.9,40.9h2.4v1.3h0c0.8-1,1.8-1.5,3.1-1.5c1,0,1.9,0.4,2.7,1.1c0.8,0.7,1.2,1.8,1.3,3.2v8.1H453v-7.3
		c0-0.9-0.2-1.5-0.7-2c-0.4-0.5-1-0.7-1.7-0.7c-0.7,0-1.2,0.2-1.7,0.7c-0.5,0.5-0.7,1.1-0.7,2v7.3h-2.4L445.9,40.9L445.9,40.9z"/>
</g>
</svg>
