<?xml version="1.0" encoding="utf-8"?>
<!-- Generator: Adobe Illustrator 28.0.0, SVG Export Plug-In . SVG Version: 6.00 Build 0)  -->
<svg version="1.1" id="圖層_1" xmlns="http://www.w3.org/2000/svg" xmlns:xlink="http://www.w3.org/1999/xlink" x="0px" y="0px"
	 viewBox="0 0 455.35 61.89" style="enable-background:new 0 0 455.35 61.89;" xml:space="preserve">
<style type="text/css">
	.st0{fill:#004392;}
	.st1{fill:#E2690D;}
	.st2{fill:#FFFFFF;}
</style>
<g>
	<g>
		<path class="st0" d="M20.5,38.06c0-12.68,16.7-24.56,35.67-24.56c12.19,0,22.99,4.35,29.45,11C81,10.64,63.78,0.38,43.36,0.38
			C20.31,0.38,0,15.14,0,30.88c0,17.48,19.22,31.01,43.17,31.01c0.64,0,1.28-0.01,1.91-0.03C30.78,58.68,20.5,49.4,20.5,38.06z"/>
	</g>
	<g>
		<path class="st1" d="M70.04,25.5v-0.04H47.59c1.88,3.31,3.09,8.41,3.09,14.14c0,5.44-1.09,10.31-2.81,13.62h22.17v-0.16
			c7.19-0.49,12.86-6.47,12.86-13.78C82.9,31.97,77.22,25.99,70.04,25.5z"/>
	</g>
</g>
<g>
	<g>
		<path class="st2" d="M113.4,17.59c0.42,0.08,0.63,0.32,0.65,0.72c0.08,0.69-0.29,1.44-1.12,2.27c-0.96,1.02-1.69,1.66-2.21,1.93
			c-0.66,0.42-1.29,0.52-1.87,0.31c-0.71-0.29-0.99-0.84-0.84-1.65c0.15-0.81,0.6-1.23,1.37-1.25c0.93-0.12,1.71-0.54,2.34-1.25
			C112.46,17.89,113.02,17.53,113.4,17.59z M112.21,17.06c-0.91,0.08-1.57-0.2-1.96-0.84c-0.37-0.5-0.57-1.29-0.59-2.37
			c-0.1-6.09-0.11-9.48-0.03-10.19c0.14-0.58,0.38-0.98,0.72-1.18c0.5-0.35,1.07-0.49,1.71-0.41c0.21,0.04,0.72,0.05,1.53,0.03
			c3.84-0.08,5.98,0.13,6.42,0.65c0.35,0.37,0.49,1,0.4,1.87c-0.02,0.77-0.02,1.69,0,2.77c0,1.87,0,3.44,0,4.71
			c-0.04,0.52-0.03,1.09,0.03,1.71c0.02,1.29-0.22,2.13-0.72,2.52c-0.62,0.5-1.41,0.72-2.37,0.65
			C114.75,16.95,113.04,16.97,112.21,17.06z M117.98,10.33c0-0.6,0-1.19,0-1.78c-0.25-0.08-0.53-0.12-0.84-0.12
			c-2.12-0.1-3.83-0.06-5.14,0.12c-0.1,0-0.17,0-0.19,0c0.02,0.87,0.03,1.46,0.03,1.78c0.04-0.02,0.07-0.02,0.09,0
			c0.5,0.08,1.5,0.11,3.02,0.09C116.64,10.38,117.64,10.35,117.98,10.33z M117.94,6.37c-0.02-1.14-0.14-1.79-0.34-1.93
			c-0.21-0.17-1.25-0.26-3.11-0.28c-1.52,0-2.32,0.06-2.4,0.19c-0.15,0.12-0.23,0.79-0.25,1.99c0.04-0.02,0.07-0.02,0.09,0
			c0.5,0.08,1.53,0.11,3.08,0.09C116.51,6.41,117.49,6.39,117.94,6.37z M111.99,12.54h-0.03c0.06,1.08,0.17,1.66,0.31,1.74
			c0.15,0.15,1.03,0.21,2.65,0.19c1.52-0.02,2.41-0.09,2.68-0.22c0.19-0.19,0.29-0.76,0.31-1.71c-0.13-0.08-0.42-0.12-0.87-0.12
			C114.98,12.31,113.3,12.35,111.99,12.54z M120.56,20.92c0.42,0.69,0.49,1.16,0.22,1.43c-0.29,0.25-0.78,0.21-1.46-0.12
			c-0.46-0.35-1.16-0.79-2.12-1.31c-0.77-0.23-1.23-0.6-1.37-1.12c-0.06-0.29,0.03-0.6,0.28-0.93c0.25-0.27,0.59-0.47,1.03-0.59
			c0.54-0.12,0.98-0.08,1.31,0.12c0.35,0.21,0.56,0.45,0.62,0.72C119.42,19.74,119.92,20.34,120.56,20.92z M127.54,15.16
			c-2.2,1.95-3.8,3.06-4.8,3.33c-0.98,0.29-1.66,0.28-2.06-0.03c-0.52-0.37-0.72-0.85-0.59-1.43c0.15-0.54,0.54-0.93,1.18-1.18
			c3.47-1.52,5.95-3.22,7.45-5.11c0.04-0.06,0.07-0.1,0.09-0.12c0-0.96,0-1.84,0-2.65c-1.43,0-2.81,0.25-4.14,0.75
			c-1.5,0.56-2.44,0.56-2.83,0c-0.35-0.48-0.37-1.01-0.06-1.59c0.58-0.87,1.29-1.31,2.12-1.31c0.23-0.04,1.87-0.06,4.92-0.06
			c-0.04-1.37-0.07-2.55-0.09-3.55c-0.04-0.85,0.2-1.31,0.72-1.37c0.52-0.06,1.09,0.16,1.71,0.65c0.48,0.42,0.64,0.98,0.5,1.68
			c-0.12,0.52-0.23,1.38-0.31,2.59c1.1,0,2.22,0,3.36,0c1.08-0.02,1.58,0.19,1.5,0.62c-0.1,0.44-0.57,0.93-1.4,1.5
			c-0.44,0.29-1.18,0.36-2.24,0.22c-0.48-0.06-0.94-0.09-1.37-0.09c-0.12,4.45,0,8.27,0.37,11.46c0.25,1.99,0.16,3.16-0.28,3.49
			c-0.75,0.58-1.44,0.43-2.09-0.47c-0.31-0.46-0.46-1.23-0.44-2.31c0.02-0.56,0.03-2.6,0.03-6.11
			C128.41,14.34,128,14.7,127.54,15.16z"/>
		<path class="st2" d="M157.1,0.54c4.57-0.06,7.13,0.03,7.7,0.28c0.69,0.31,1.19,0.88,1.53,1.71c0.25,0.6,0.31,1.66,0.19,3.18
			c-0.46,4.82-0.61,8.94-0.47,12.37c0.06,1.56-0.04,2.81-0.31,3.77c-0.27,0.73-0.79,1.29-1.56,1.68c-0.56,0.25-1.43,0.28-2.62,0.09
			c-1.1-0.17-3.69-0.26-7.76-0.28c-3.99,0-6.96,0.12-8.91,0.37c-1.54,0.19-2.6,0-3.18-0.56c-0.62-0.58-0.86-2.31-0.72-5.2
			c0.19-5.77,0.27-10.26,0.25-13.46c0-1.64,0.32-2.81,0.97-3.52c0.39-0.41,2.19-0.58,5.39-0.5C148.68,0.52,151.85,0.54,157.1,0.54z
			 M157.1,13.26c0.48-0.23,0.91-0.11,1.31,0.34c0.06,0.04,0.1,0.09,0.12,0.16c0.46-0.02,0.84-0.02,1.15,0
			c1.56,0.06,2.68,0.08,3.36,0.06c0.6,0,0.77,0.26,0.5,0.78c-0.48,0.71-1,1.31-1.56,1.81c-0.5,0.35-1.09,0.39-1.78,0.12
			c-0.5-0.23-1-0.42-1.5-0.56c-0.25,1-0.37,1.99-0.37,2.99c-0.58,1.06-2.21,1.81-4.89,2.24c1.91,0.02,3.99,0.07,6.23,0.16
			c1.58,0.04,2.56-0.1,2.96-0.44c0.46-0.46,0.73-1.19,0.81-2.21c0.25-3.1,0.36-7.07,0.34-11.93c-0.06-1.89-0.32-3.03-0.78-3.43
			c-0.67-0.48-1.75-0.75-3.24-0.81c-4.01-0.17-7.41-0.16-10.22,0.03c-3.12,0.1-4.9,0.48-5.36,1.12c-0.37,0.54-0.57,1.32-0.59,2.34
			c-0.17,3.92-0.26,7.74-0.28,11.43c-0.02,1.56,0.2,2.63,0.65,3.21c0.46,0.48,1.99,0.67,4.61,0.59c2.16-0.06,3.31-0.08,3.46-0.06
			c-0.41-0.19-0.79-0.54-1.12-1.06c-0.33-0.54-0.43-0.97-0.28-1.28c0.17-0.31,0.51-0.36,1.03-0.16c0.33,0.17,0.76,0.29,1.28,0.37
			c2.01-0.08,3.19-0.4,3.52-0.96c0.02-0.25,0-1.13-0.06-2.65c-3.47-0.44-6.82-0.16-10.06,0.84c-0.92,0.23-1.54,0.11-1.87-0.34
			c-0.29-0.46-0.15-0.93,0.44-1.43c0.83-0.56,1.99-0.84,3.49-0.84c3.61-0.08,6.35-0.08,8.22,0C156.74,13.48,156.9,13.34,157.1,13.26
			z M149.66,11.04c-0.96,0.19-1.57,0.19-1.84,0c-0.48-0.29-0.72-0.85-0.72-1.68c-0.04-0.25-0.06-0.54-0.06-0.87
			c-0.23-1.33-0.12-2.21,0.31-2.65c0.21-0.19,1.57-0.31,4.08-0.37c0.31-0.02,0.62-0.02,0.93,0c0-0.33,0-0.63,0-0.9
			c-1.37,0.02-2.77,0.28-4.21,0.78c-1.06,0.37-1.72,0.37-1.99,0c-0.23-0.35-0.24-0.73-0.03-1.12c0.27-0.46,0.72-0.76,1.34-0.9
			c0.1-0.02,1.22-0.03,3.33-0.03c0.58-0.02,1.16-0.02,1.74,0c0.08-0.14,0.17-0.25,0.25-0.31c0.6-0.44,1.1-0.42,1.5,0.03
			c0.06,0.1,0.12,0.2,0.19,0.28c1.81-0.02,3.68-0.03,5.61-0.03c0.73,0.02,1.08,0.17,1.06,0.44c-0.08,0.31-0.42,0.67-1,1.06
			c-0.29,0.19-0.81,0.24-1.56,0.16c-1.39-0.21-2.66-0.32-3.8-0.34c0,0.21,0,0.44,0,0.69c-0.02,0.04-0.03,0.09-0.03,0.16
			c2.7-0.06,4.28,0.09,4.74,0.47c0.44,0.37,0.61,0.93,0.53,1.68c-0.08,0.25-0.16,0.53-0.22,0.84c0.04,1.04-0.16,1.72-0.59,2.06
			c-0.5,0.41-1.18,0.55-2.06,0.4c-0.06-0.02-0.14-0.02-0.22,0c0.12,0.08,0.26,0.19,0.41,0.31c0.31,0.29,0.43,0.6,0.34,0.94
			c-0.15,0.37-0.54,0.62-1.18,0.75c-0.15,0.02-0.26,0.04-0.34,0.06c-2.91,0.33-4.84,0.33-5.8,0c-0.33-0.15-0.53-0.32-0.59-0.53
			c-0.06-0.17-0.02-0.38,0.12-0.62c0.17-0.27,0.53-0.57,1.09-0.9C150.48,10.9,150.03,10.96,149.66,11.04z M152.37,6.87
			c-2.1,0.04-3.25,0.17-3.46,0.37c-0.02,0-0.03,0.03-0.03,0.09c0.69,0.08,1.85,0.12,3.49,0.12C152.37,7.25,152.37,7.06,152.37,6.87z
			 M152.31,8.49c-1.62,0.02-2.72,0.07-3.3,0.16c0.02,0.27,0.07,0.41,0.16,0.44c0.1,0.06,1.16,0.09,3.18,0.09
			C152.32,8.97,152.31,8.74,152.31,8.49z M150.37,18.15c-0.39-0.04-0.7-0.29-0.9-0.75c-0.15-0.37-0.08-0.72,0.19-1.03
			c0.27-0.27,0.56-0.34,0.87-0.22c1.31,0.19,2.44,0.18,3.4-0.03c0.23,0.02,0.35,0.13,0.37,0.34c-0.02,0.27-0.29,0.57-0.81,0.9
			C152.24,18.03,151.21,18.29,150.37,18.15z M154.86,10.76c-0.91-0.06-1.4-0.06-1.46,0c-0.08,0.04-0.17,0.09-0.25,0.16
			c-0.35,0.25-0.66,0.45-0.93,0.59c-0.15,0.1-0.21,0.19-0.19,0.25c0.04,0.1,0.19,0.16,0.44,0.16c2.08,0,3.18-0.06,3.3-0.19
			c0.02-0.12-0.03-0.23-0.16-0.31c-0.19-0.17-0.38-0.32-0.59-0.47C154.93,10.85,154.88,10.78,154.86,10.76z M154.58,9.11
			c0.83-0.04,1.47-0.05,1.93-0.03c0.62,0.02,1.04-0.06,1.25-0.25c0.02-0.04,0.04-0.12,0.06-0.25c-0.56-0.1-1.62-0.14-3.18-0.12
			C154.62,8.69,154.6,8.91,154.58,9.11z M154.64,7.46c1.52-0.04,2.57-0.06,3.15-0.06c-0.02-0.19-0.04-0.29-0.06-0.31
			c-0.29-0.19-1.32-0.27-3.08-0.25c0,0.21,0,0.37,0,0.5C154.64,7.4,154.64,7.44,154.64,7.46z"/>
		<path class="st2" d="M175.95,11.7c0.77,0.4,1.11,0.78,1.03,1.15c-0.08,0.44-0.54,0.69-1.37,0.75c-0.44,0.02-1.07,0.07-1.9,0.16
			c-0.79,0.23-1.41,0.16-1.87-0.22c-0.23-0.23-0.33-0.57-0.31-1.03c0.06-0.42,0.26-0.79,0.59-1.12c0.39-0.44,0.82-0.66,1.28-0.68
			c0.44,0,0.76,0.1,0.97,0.31C174.78,11.32,175.31,11.55,175.95,11.7z M179.35,18.8c0.08,0.54-0.29,1.03-1.12,1.46
			c-1.5,1.33-2.52,2.27-3.08,2.83c-0.87,0.58-1.59,0.67-2.15,0.28c-0.42-0.46-0.7-0.98-0.84-1.56c-0.17-0.83,0.28-1.44,1.34-1.84
			c0.75-0.17,2.25-0.59,4.52-1.28C178.82,18.33,179.26,18.37,179.35,18.8z M178.07,5.59c0.6,0.62,0.8,1.1,0.59,1.43
			c-0.27,0.37-0.79,0.46-1.56,0.25c-0.5-0.19-1.23-0.42-2.18-0.69c-0.83-0.04-1.4-0.32-1.71-0.84c-0.15-0.31-0.13-0.66,0.06-1.06
			c0.19-0.37,0.5-0.66,0.93-0.87c0.52-0.25,1-0.31,1.43-0.19c0.39,0.12,0.66,0.32,0.81,0.59C176.85,4.74,177.38,5.2,178.07,5.59z
			 M184.18,23.57c-0.91,0.08-1.53,0-1.84-0.25c-0.44-0.27-0.61-0.63-0.53-1.09c0.08-0.5,0.76-1.51,2.03-3.02
			c1.76-2.2,2.81-3.59,3.15-4.17c0.08-0.15,0.17-0.26,0.25-0.34c-2.58-0.12-4.93,0.41-7.07,1.59c-1.02,0.52-1.81,0.49-2.37-0.09
			c-0.5-0.6-0.41-1.37,0.28-2.31c0.35-0.48,0.84-0.71,1.46-0.69c0.52-0.02,1.72-0.13,3.61-0.34c1.16-0.19,2.34-0.29,3.52-0.31
			c-0.04-0.29-0.03-0.62,0.03-1c0.04-0.39,0.05-1.23,0.03-2.49c-0.98-0.06-2.06,0.06-3.24,0.37c-1.29,0.31-2.15,0.25-2.59-0.19
			c-0.48-0.5-0.46-1.04,0.06-1.62c0.5-0.6,2.4-0.9,5.7-0.9c-0.06-1.72-0.14-2.77-0.22-3.15c-0.23-0.79-0.18-1.44,0.16-1.96
			c0.27-0.46,0.65-0.67,1.15-0.65c0.46,0.02,0.91,0.28,1.37,0.78c0.35,0.42,0.49,0.98,0.41,1.68c-0.15,0.77-0.25,1.88-0.31,3.33
			c1.35,0.02,2.87,0.09,4.55,0.22c0.69,0.02,1.13,0.19,1.34,0.5c0.15,0.21,0.16,0.57,0.03,1.09c-0.12,0.38-0.38,0.69-0.78,0.94
			c-0.21,0.1-0.45,0.12-0.72,0.06c-2.06-0.37-3.55-0.55-4.49-0.53c-0.02,1.02,0.01,1.79,0.09,2.31c0.06,0.46,0.06,0.85,0,1.18
			c1.47-0.08,4.86,0.22,10.16,0.9c0.66,0.08,0.84,0.41,0.53,0.97c-0.31,0.42-0.6,0.81-0.87,1.18c-1,1.18-1.99,1.53-2.99,1.03
			c-2.22-1.29-4.74-1.93-7.54-1.93c0.06,0.06,0.12,0.13,0.19,0.22c0.39,0.54,0.91,1,1.56,1.37c1.14,0.6,2.53,1.78,4.18,3.52
			c0.85,0.96,1.23,1.65,1.15,2.09c-0.06,0.33-0.2,0.59-0.4,0.78c-0.27,0.19-0.7,0.31-1.28,0.37c-0.77,0.04-2.38,0.12-4.83,0.25
			C187.21,23.38,185.57,23.48,184.18,23.57z M187.88,18.05c-0.19,0.02-0.59,0.41-1.21,1.15c-0.96,1.08-1.33,1.72-1.12,1.93
			c0.1,0.12,1.29,0.2,3.55,0.22c2.31-0.17,3.49-0.29,3.55-0.37c0.04-0.19-0.28-0.57-0.97-1.15c-0.62-0.52-1.32-0.94-2.09-1.28
			C188.79,18.2,188.22,18.03,187.88,18.05z"/>
		<path class="st2" d="M206.39,20.33c-0.87,0.5-1.66,0.61-2.37,0.34c-0.83-0.46-1.29-0.95-1.37-1.46c-0.02-0.62,0.26-1.1,0.84-1.43
			c3.72-2.08,6.6-4.3,8.66-6.67c0.02-0.06,0.06-0.1,0.12-0.12c1.89-2.66,2.64-4.84,2.24-6.54c-0.02-0.52,0.07-0.88,0.28-1.09
			c0.33-0.39,0.78-0.5,1.34-0.31c0.75,0.25,1.25,0.73,1.5,1.43c0.29,0.85,0.24,1.63-0.16,2.34c-0.69,1.25-1.1,2.13-1.25,2.65
			c0.1,0.1,0.19,0.23,0.25,0.38c0.21,0.48,1.22,1.54,3.05,3.18c1.47,1.27,3.65,2.57,6.54,3.89c2.22,1.1,3.99,1.72,5.3,1.87
			c1.37,0.15,1.73,0.57,1.09,1.28c-0.54,0.64-2.02,1.29-4.45,1.93c-1.12,0.35-2.22-0.06-3.3-1.25c-4.61-4.8-7.98-7.63-10.09-8.5
			C211.87,15.82,209.13,18.52,206.39,20.33z"/>
		<path class="st2" d="M241.62,23.75c-0.4-0.27-0.6-0.79-0.62-1.56c-0.02-0.58-0.07-1.26-0.16-2.03c-0.08-0.83-0.13-1.63-0.16-2.4
			c-0.04-0.33-0.07-0.63-0.09-0.9c-0.08-0.77,0.09-1.35,0.53-1.74c0.27-0.25,0.73-0.37,1.37-0.37c1.1-0.04,2.28-0.07,3.55-0.09
			c-0.04-0.38-0.05-0.67-0.03-0.87c-2.53,0.12-5.31,0.66-8.32,1.62c-1.1,0.31-1.85,0.19-2.24-0.37c-0.33-0.54-0.16-1.12,0.53-1.74
			c0.81-0.6,1.76-0.95,2.84-1.03c0.31,0,0.91-0.01,1.81-0.03c3.74-0.12,7.21-0.18,10.4-0.16c3.93,0.08,6.67,0.13,8.22,0.16
			c1.87,0.06,3.21,0.06,4.02,0c0.73-0.02,0.92,0.29,0.59,0.93c-0.54,0.85-1.15,1.57-1.84,2.15c-0.58,0.48-1.29,0.55-2.12,0.22
			c-1.97-0.87-3.84-1.41-5.61-1.62c-0.79-0.1-1.63-0.17-2.52-0.19c0,0.04,0,0.07,0,0.09c-0.06,0.23-0.1,0.48-0.12,0.75
			c1.12,0,2.1,0.01,2.93,0.03c1.04,0,1.82,0.17,2.34,0.5c0.46,0.25,0.68,0.66,0.65,1.25c-0.15,1.62-0.21,3.34-0.19,5.17
			c-0.04,1.08-0.29,1.75-0.75,1.99c-0.52,0.29-1.32,0.37-2.4,0.25c-0.56-0.12-2.25-0.2-5.08-0.22c-2.37-0.04-4.22,0.07-5.55,0.34
			C242.66,24.07,242,24.03,241.62,23.75z M248.48,5.34c0.08,0.15,0.09,0.35,0.03,0.62c-0.08,0.21-0.23,0.38-0.44,0.5
			c-0.12,0.06-0.26,0.08-0.4,0.06c-0.5-0.1-0.97-0.17-1.4-0.19c-0.31,0-0.68,0-1.12,0c-0.06,0.12-0.1,0.23-0.12,0.31
			c-0.25,0.5-0.51,0.88-0.78,1.15c-0.31,0.31-0.62,0.57-0.93,0.78c-0.42,0.25-0.76,0.42-1.03,0.5c-0.35,0.1-0.63,0.11-0.84,0.03
			c-0.23-0.08-0.35-0.2-0.37-0.34c-0.06-0.27,0-0.48,0.19-0.62c0.21-0.23,0.54-0.44,1-0.62c0.19-0.06,0.42-0.22,0.69-0.47
			c0.19-0.21,0.35-0.4,0.5-0.59c-0.1-0.02-0.17-0.02-0.19,0c-0.35,0.06-0.67,0.12-0.94,0.19c-0.68,0.17-1.15,0.12-1.4-0.12
			c-0.25-0.27-0.24-0.57,0.03-0.89c0.19-0.23,0.62-0.37,1.31-0.43c0.48-0.08,1.04-0.12,1.68-0.12c0.04-0.41,0.06-0.69,0.06-0.83
			l-0.03-0.06c-0.17,0-0.31,0-0.44,0c-0.37,0.04-0.65,0.05-0.84,0.03c-0.23,0.35-0.5,0.57-0.81,0.66c-0.29,0.06-0.47,0.05-0.53-0.03
			c-0.06-0.14,0.04-0.42,0.31-0.81c0.12-0.21,0.23-0.45,0.31-0.7c0.1-0.36,0.17-0.63,0.19-0.82c0-0.17,0.03-0.28,0.09-0.34
			c-0.52,0.02-0.98,0.07-1.37,0.16c-0.17,0.02-0.29,0.04-0.37,0.06c-0.02,0.29-0.09,0.61-0.22,0.95c-0.21,0.74-0.21,2.71,0,5.91
			c0.02,0.21,0.19,0.3,0.5,0.28c1.33-0.12,3.5-0.2,6.51-0.22c0.69-0.04,1.1,0,1.25,0.12c0.1,0.1,0.15,0.34,0.12,0.72
			c-0.04,0.46-0.31,0.78-0.81,0.96c-0.46,0.17-1.03,0.12-1.71-0.16c-0.46-0.08-1.01-0.11-1.65-0.09c-0.85,0.02-1.62,0.09-2.31,0.22
			c-1.21,0.11-2.29,0.32-3.24,0.65c-0.56,0.29-0.97,0.3-1.22,0.03c-0.25-0.27-0.36-0.57-0.34-0.9c0.04-0.33,0.22-0.73,0.53-1.18
			c0.19-0.31,0.34-0.6,0.47-0.87c0.17-2.2,0.18-4.07,0.03-5.6c0.02-0.32-0.01-0.63-0.09-0.94c-0.04-0.31,0.01-0.68,0.16-1.12
			c0.1-0.27,0.35-0.37,0.75-0.31c-0.02-0.02-0.02-0.03,0-0.03c0.39-0.33,1.16-0.49,2.31-0.47c1.6,0.02,3.12,0.04,4.58,0.06
			c1.14-0.02,1.88,0.1,2.21,0.37c0.21,0.25,0.25,0.54,0.12,0.87c-0.1,0.33-0.54,0.5-1.31,0.5c-1.43-0.04-2.69-0.05-3.77-0.03
			c-0.27,0-0.5,0.01-0.68,0.03c0.1,0.04,0.2,0.1,0.28,0.19c0.17,0.19,0.26,0.35,0.28,0.5c0.23,0,0.48,0,0.75,0
			c0.73,0.02,1.43,0.04,2.12,0.06c0.77-0.02,1.28,0.07,1.53,0.28c0.14,0.15,0.18,0.35,0.09,0.6c-0.1,0.23-0.42,0.35-0.93,0.35
			c-0.46-0.02-0.85-0.02-1.18,0c-0.04,0.15-0.07,0.29-0.09,0.44c-0.06,0.13-0.1,0.29-0.12,0.5c0.68,0,1.46,0,2.34,0
			C248.1,5.1,248.35,5.2,248.48,5.34z M254.34,17.28c0.37-0.06,0.52,0.06,0.44,0.37c-0.23,0.6-0.51,1.01-0.84,1.21
			c-0.23,0.15-0.91,0.06-2.06-0.25c-0.67-0.16-1.1-0.38-1.31-0.65c-0.33-0.33-0.51-0.9-0.53-1.71c-0.56,0-1.15,0-1.78,0
			c-0.23,0.02-0.44,0.04-0.62,0.06c-0.06,0.27-0.1,0.54-0.12,0.81c-0.08,0.4-0.23,0.73-0.44,1c-0.29,0.33-0.69,0.59-1.18,0.78
			c-0.52,0.21-0.9,0.32-1.15,0.34c-0.21,0.04-0.44,0-0.69-0.12c-0.21-0.1-0.34-0.26-0.4-0.47c-0.08-0.31-0.08-0.56,0-0.75
			c0.04-0.15,0.23-0.23,0.56-0.25c0.33-0.04,0.63-0.12,0.9-0.25c0.25-0.1,0.45-0.22,0.59-0.34c0.13-0.17,0.22-0.35,0.28-0.56
			c0-0.06,0-0.1,0-0.12c-1.72,0.08-2.69,0.23-2.9,0.44c-0.19,0.19-0.22,1.2-0.09,3.02c0.12,1.06,0.26,1.65,0.4,1.78
			c0.23,0.17,0.72,0.24,1.46,0.22c4.17-0.19,6.96-0.25,8.35-0.19c0.85,0.04,1.4-0.06,1.65-0.31c0.21-0.27,0.3-1.16,0.28-2.68
			c-0.02-1.2-0.13-1.88-0.34-2.02c-0.31-0.23-1.38-0.34-3.21-0.34c0,0.04,0,0.1,0,0.19c-0.06,0.33,0.1,0.59,0.5,0.78
			C252.76,17.35,253.5,17.36,254.34,17.28z M251.72,19.39c0.83,0,1.37,0.1,1.62,0.31c0.17,0.15,0.21,0.35,0.12,0.62
			c-0.08,0.25-0.41,0.38-1,0.38c-1.45-0.04-2.72-0.06-3.8-0.06c-1,0-1.85,0.06-2.55,0.19c-0.75,0.15-1.22,0.03-1.4-0.34
			c-0.15-0.29-0.08-0.56,0.19-0.81c0.31-0.25,0.88-0.36,1.71-0.34C248.4,19.37,250.1,19.39,251.72,19.39z M248.26,7.74
			c0.21,0.17,0.3,0.35,0.28,0.56c-0.06,0.17-0.28,0.24-0.65,0.22c-0.58-0.14-1.12-0.23-1.62-0.25c-0.44,0-0.73-0.09-0.87-0.28
			c-0.12-0.17-0.15-0.34-0.06-0.53c0.06-0.21,0.2-0.38,0.4-0.53c0.21-0.1,0.38-0.16,0.53-0.16c0.19,0,0.38,0.07,0.59,0.22
			C247.34,7.29,247.8,7.53,248.26,7.74z M250.04,14.6c0-0.31,0-0.54,0-0.68c-0.02-0.08-0.03-0.16-0.03-0.22
			c-0.75,0-1.51,0.01-2.27,0.03c0.06,0.27,0.08,0.56,0.06,0.87C248.58,14.6,249.33,14.6,250.04,14.6z M250.22,10.86
			c-0.83-0.85-1.18-1.47-1.06-1.87c0.06-0.12,0.29-0.19,0.69-0.19c1,0.04,1.82,0,2.46-0.12c0.44-0.12,0.91-0.32,1.43-0.59
			c-0.19-0.08-0.35-0.16-0.5-0.22c-0.46-0.14-0.93-0.22-1.43-0.22c-0.62,0-0.92-0.26-0.9-0.78c0.02-0.44,0.26-0.73,0.72-0.87
			c0.71-0.25,1.35-0.14,1.93,0.31c0.39,0.27,0.76,0.45,1.09,0.53c0.15,0.04,0.28,0.09,0.41,0.16c0.08-0.15,0.16-0.28,0.22-0.41
			c0.13-0.31,0.22-0.63,0.28-0.97c0.04-0.14,0.12-0.23,0.25-0.25c0.35-0.1,0.79,0.04,1.31,0.44c0.17,0.17,0.21,0.35,0.12,0.56
			c-0.21,0.37-0.38,0.76-0.53,1.15c-0.02,0.04-0.04,0.07-0.06,0.09c0.1,0.04,0.22,0.09,0.34,0.16c0.85,0.37,1.62,0.66,2.31,0.87
			c0.73,0.25,1.54,0.41,2.43,0.5c0.64,0.08,0.78,0.38,0.4,0.87c-0.31,0.56-1.12,1.16-2.43,1.81c-0.83,0.4-1.54,0.21-2.12-0.56
			c-0.71-0.85-1.4-1.56-2.09-2.12c-0.42,0.38-0.88,0.7-1.4,0.97c-0.58,0.29-1.53,0.63-2.83,1.03
			C250.9,11.22,250.56,11.13,250.22,10.86z M258.01,1.95c-0.02,0.04-0.04,0.1-0.06,0.19c-0.04,0.06-0.14,0.45-0.28,1.15
			c0.77,0.02,1.23,0.04,1.37,0.06c0.6,0.06,0.94,0.17,1.03,0.31c0.12,0.31,0.05,0.7-0.22,1.15c-0.25,0.33-0.51,0.56-0.78,0.69
			c-0.27,0.12-0.7,0.08-1.28-0.12c-0.77-0.35-1.85-0.57-3.24-0.65c-0.93-0.1-1.71-0.08-2.34,0.06c-0.48,0.1-0.81,0.12-1,0.06
			c-0.19-0.1-0.32-0.26-0.4-0.47c-0.08-0.27-0.1-0.65-0.06-1.15c0-0.29,0-0.78,0-1.46c-0.04-0.46,0.02-0.79,0.19-1
			c0.15-0.17,0.32-0.25,0.53-0.25c0.17,0,0.29,0.04,0.37,0.12c0.37-0.21,0.69-0.28,0.97-0.22c0.21,0.02,0.5,0.04,0.87,0.06
			c0.75,0,1.38-0.01,1.9-0.03c0.93-0.06,1.57,0.06,1.9,0.37C257.81,1.14,257.99,1.51,258.01,1.95z M252.28,2.13
			c0,0.31,0,0.53,0,0.65c0.17,0.21,0.31,0.32,0.44,0.34c0.17,0.02,0.35-0.01,0.56-0.09c0.25,0.02,1.03,0.07,2.34,0.16
			c0.02-0.12,0.03-0.23,0.03-0.31c0-0.19,0-0.29,0-0.31c0.04-0.25-0.04-0.48-0.25-0.69c-0.19-0.04-0.68-0.03-1.5,0.03
			C253.15,1.98,252.61,2.05,252.28,2.13z"/>
		<path class="st2" d="M294.03,16.31c0.91,0.04,1.41,0.22,1.5,0.53c0.08,0.27-0.32,0.91-1.22,1.93c-0.04,0-0.07,0.03-0.09,0.09
			c-1.41,1.25-2.69,1.52-3.83,0.81c-1.58-1.06-4.14-1.6-7.7-1.62c-0.06,0.33-0.1,0.75-0.12,1.25c0.02,1.37-0.04,2.47-0.19,3.3
			c-0.17,0.77-0.44,1.21-0.81,1.34c-0.39,0.12-0.75-0.01-1.06-0.4c-0.15-0.17-0.23-0.38-0.25-0.66c-0.08-0.35-0.12-1.96-0.12-4.83
			c-3.49,0.06-6.62,0.51-9.38,1.34c-1.47,0.5-2.43,0.64-2.87,0.44c-0.42-0.23-0.63-0.57-0.65-1.03c-0.02-0.6,0.31-1.23,1-1.87
			c0.64-0.6,1.43-0.93,2.37-1c2.35-0.08,5.59-0.11,9.72-0.09c0.25-0.56,0.54-0.88,0.87-0.97c0.42-0.08,0.76,0.04,1.03,0.38
			c0.1,0.17,0.2,0.37,0.28,0.62C284.64,15.91,288.48,16.06,294.03,16.31z M272.5,14.91c-0.58-0.33-1.26-0.53-2.02-0.59
			c-0.33-0.02-0.6-0.1-0.81-0.25c-0.19-0.17-0.29-0.34-0.31-0.53c0-1.02,0.34-1.68,1.03-1.99c0.44-0.31,0.65-0.54,0.65-0.69
			c0-0.14-0.28-0.31-0.84-0.5c-0.33-0.17-0.54-0.32-0.62-0.47c-0.1-0.17-0.15-0.29-0.12-0.37c0-0.33,0.16-0.73,0.47-1.18
			c0.4-0.58,0.97-1.06,1.71-1.43c0.58-0.37,1-0.73,1.25-1.06c0.14-0.25,0.31-0.36,0.5-0.34c0.52-0.1,0.69,0.25,0.5,1.06
			c-0.02,0.21,0.1,0.35,0.37,0.44c0.39,0.1,0.79,0.37,1.18,0.81c0.71,0.62,0.72,1.31,0.03,2.06c-0.39,0.42-0.46,0.73-0.19,0.93
			c0.54,0.48,0.81,0.93,0.81,1.37c-0.02,1.06-0.5,1.99-1.43,2.8c-0.29,0.21-0.62,0.3-1,0.28C273.28,15.23,272.89,15.12,272.5,14.91z
			 M272.4,4.88c-1.16,0.25-1.93,0.19-2.31-0.19c-0.31-0.46-0.19-0.91,0.37-1.37c1.72-1.33,3.28-1.84,4.67-1.53
			c-0.02-0.1-0.04-0.2-0.06-0.28c-0.19-0.56-0.08-0.98,0.31-1.25c0.75-0.41,1.51-0.34,2.27,0.22c0.42,0.35,0.53,0.76,0.34,1.21
			c-0.04,0.04-0.07,0.1-0.09,0.19c0.25-0.02,0.5-0.02,0.75,0c0.98-0.02,1.51,0.26,1.59,0.84c0.04,0.39-0.29,0.67-1,0.81
			c-0.6,0.1-1.16,0.23-1.68,0.37c0.02,0.93-0.16,1.51-0.53,1.71c-0.31,0.29-0.62,0.25-0.93-0.12c-0.21-0.27-0.37-0.69-0.5-1.25
			C274.1,4.48,273.03,4.69,272.4,4.88z M275.43,22.94c-1.23,0.6-2.1,0.77-2.62,0.5c-0.56-0.29-0.88-0.79-0.97-1.5
			c-0.15-0.83,0.35-1.35,1.5-1.56c1.23-0.17,2.31-0.41,3.24-0.72c0.58-0.37,0.97-0.46,1.15-0.25c0.25,0.23,0.22,0.6-0.09,1.12
			C277.12,21.4,276.38,22.2,275.43,22.94z M273.03,11.64c-0.06,0.02-0.23,0.2-0.5,0.53c-0.29,0.37-0.44,0.62-0.44,0.75
			c0.02,0.1,0.13,0.2,0.34,0.28c0.23,0.1,0.53,0.16,0.9,0.16c0.17,0.02,0.28-0.01,0.34-0.09c0.1-0.19,0.16-0.47,0.16-0.84
			c0-0.23-0.09-0.42-0.28-0.56C273.41,11.73,273.24,11.66,273.03,11.64z M272.59,8.02c-0.1,0.02-0.2,0.14-0.28,0.34
			c-0.12,0.25-0.19,0.47-0.19,0.65c0.04,0.19,0.13,0.32,0.28,0.41c0.48,0.12,0.84,0.09,1.09-0.09c0.1-0.06,0.16-0.19,0.16-0.37
			c0.02-0.21-0.1-0.42-0.37-0.62C273.03,8.13,272.8,8.02,272.59,8.02z M279.94,14.78c-1.02,0.21-1.69,0.21-2.02,0
			c-0.52-0.35-0.78-0.98-0.78-1.87c-0.08-1.18-0.14-2.37-0.16-3.55c-0.12-1.08,0.01-1.81,0.4-2.18c0.39-0.31,1.13-0.43,2.21-0.34
			c0.52-1.06,0.78-1.6,0.78-1.62c0.1-0.64,0.32-1.01,0.65-1.09c0.33-0.02,0.69,0.2,1.06,0.65c0.42,0.6,0.43,1.16,0.03,1.68
			c-0.08,0.08-0.17,0.17-0.25,0.25c1.52-0.12,2.59,0.04,3.21,0.5c0.48,0.39,0.68,1,0.59,1.81c-0.15,0.89-0.23,1.85-0.25,2.87
			c0.02,1.12-0.2,1.87-0.65,2.24c-0.54,0.44-1.29,0.58-2.24,0.44C281.8,14.44,280.94,14.51,279.94,14.78z M283.34,9.58
			c-0.02-0.6-0.09-0.94-0.22-1.03c-0.19-0.1-0.95-0.12-2.27-0.06c-1.06,0.06-1.65,0.14-1.78,0.22c-0.08,0.06-0.12,0.34-0.12,0.84
			c0.39,0.02,1.18,0.03,2.37,0.03C282.27,9.58,282.94,9.58,283.34,9.58z M279.04,11.39c0.06,0.73,0.17,1.13,0.31,1.21
			c0.08,0.06,0.25,0.08,0.5,0.06c1.39-0.12,2.32-0.19,2.77-0.19c0.25,0,0.42-0.03,0.5-0.09c0.12-0.17,0.2-0.51,0.22-1.03
			c-0.42-0.06-1.1-0.08-2.06-0.06C280.16,11.29,279.41,11.32,279.04,11.39z M283.43,3.94c-0.5,0.12-0.82-0.01-0.97-0.41
			c-0.19-0.44-0.11-0.88,0.22-1.34c0.33-0.42,0.82-0.56,1.46-0.44c0.21,0.06,0.59,0.08,1.15,0.06c0.1-0.02,0.2-0.02,0.28,0
			c-0.02-0.56,0.28-0.97,0.9-1.21c0.56-0.25,1.12-0.13,1.68,0.37c0.31,0.27,0.47,0.56,0.47,0.87c1.16,0.02,2.38,0.09,3.64,0.22
			c0.54,0.04,0.65,0.35,0.34,0.93c-0.37,0.75-0.97,1.35-1.78,1.81c-0.69,0.38-1.47,0.33-2.37-0.12c-0.21-0.12-0.44-0.23-0.69-0.31
			c-0.31,0.93-0.56,1.5-0.75,1.68c-0.33,0.29-0.67,0.3-1,0.03c-0.29-0.25-0.44-0.98-0.44-2.18C284.78,3.74,284.06,3.75,283.43,3.94z
			 M289.13,20.61c0.96,0.06,1.51,0.39,1.65,0.97c0.15,0.54,0.08,1.01-0.19,1.4c-0.5,0.6-1.09,0.83-1.78,0.69
			c-1.08-0.35-2.18-1.19-3.3-2.52c-0.46-0.52-0.58-0.9-0.37-1.15c0.29-0.31,0.63-0.34,1.03-0.09
			C286.82,20.29,287.81,20.53,289.13,20.61z M288.95,14.81c-0.62-0.31-1.32-0.5-2.09-0.56c-0.35-0.02-0.63-0.1-0.84-0.25
			c-0.19-0.19-0.28-0.37-0.28-0.56c0.02-0.93,0.37-1.56,1.06-1.87c0.46-0.31,0.69-0.54,0.69-0.69c0-0.14-0.28-0.29-0.84-0.44
			c-0.33-0.15-0.56-0.29-0.69-0.44c-0.1-0.12-0.16-0.25-0.16-0.37c0-0.31,0.17-0.7,0.5-1.15c0.42-0.58,1-1.06,1.75-1.43
			c0.6-0.33,1.03-0.66,1.28-1c0.14-0.25,0.32-0.36,0.53-0.34c0.52-0.08,0.68,0.26,0.5,1.03c-0.02,0.21,0.1,0.34,0.37,0.41
			c0.39,0.15,0.81,0.42,1.25,0.81c0.73,0.64,0.75,1.28,0.06,1.9c-0.48,0.5-0.58,0.82-0.31,0.97c0.6,0.44,0.9,0.87,0.9,1.31
			c-0.04,1.06-0.54,1.97-1.5,2.74c-0.33,0.21-0.66,0.3-1,0.28C289.74,15.14,289.34,15.02,288.95,14.81z M289.51,11.7
			c-0.1,0.04-0.29,0.2-0.56,0.47c-0.31,0.4-0.47,0.63-0.47,0.72s0.12,0.17,0.37,0.25c0.23,0.08,0.54,0.12,0.94,0.12
			c0.19,0.02,0.32-0.01,0.4-0.09c0.1-0.19,0.17-0.45,0.19-0.78c0-0.19-0.1-0.35-0.31-0.5C289.9,11.76,289.72,11.7,289.51,11.7z
			 M289.04,8.24c-0.12,0-0.23,0.09-0.31,0.28c-0.15,0.27-0.22,0.48-0.22,0.62c0,0.17,0.09,0.28,0.28,0.34
			c0.5,0.1,0.9,0.08,1.21-0.06c0.13-0.06,0.19-0.17,0.19-0.31c0.02-0.19-0.12-0.38-0.44-0.59C289.49,8.33,289.25,8.24,289.04,8.24z"
			/>
		<path class="st2" d="M302.97,22.82c-0.93,0.25-1.63,0.24-2.09-0.03c-0.5-0.31-0.79-1.38-0.87-3.21c-0.04-1.35-0.07-2.46-0.09-3.33
			c0.06-1.06,0.23-1.79,0.5-2.18c0.33-0.4,0.73-0.56,1.18-0.5c0.6,0.08,1.12,0.13,1.56,0.16c4.11-0.33,6.52-0.28,7.23,0.16
			c0.77,0.39,1.02,1.04,0.75,1.93c-0.1,0.37-0.15,0.81-0.12,1.31c0.08,2.04-0.1,3.49-0.56,4.36c-0.25,0.54-0.63,0.91-1.15,1.12
			c-0.64,0.29-1.35,0.34-2.12,0.16C305.43,22.49,304.03,22.51,302.97,22.82z M302.72,15.94c-0.21,0.17-0.3,0.85-0.28,2.06
			c0.02,1.08,0.1,1.71,0.25,1.9c0.12,0.12,0.5,0.19,1.12,0.19c1.35-0.04,2.47-0.05,3.36-0.03c0.23-0.02,0.45-0.04,0.65-0.06
			c0.33-0.21,0.49-1,0.47-2.37c-0.04-0.95-0.17-1.54-0.37-1.74c-0.21-0.19-1.16-0.27-2.87-0.25
			C303.75,15.65,302.97,15.75,302.72,15.94z M310.38,10.55c-1.27,0.27-2.1,0.27-2.49,0c-0.64-0.37-0.96-1.12-0.94-2.24
			c-0.12-1.74-0.19-2.9-0.19-3.46c-0.17-1.22,0-2.06,0.5-2.49c0.29-0.29,0.78-0.44,1.46-0.44c5.98-0.25,9.32-0.09,10,0.47
			c0.6,0.52,0.84,1.26,0.72,2.21c-0.19,0.75-0.29,1.56-0.31,2.43c0.04,1.37-0.23,2.29-0.81,2.74c-0.64,0.54-1.56,0.72-2.74,0.53
			C313.67,10.09,311.94,10.17,310.38,10.55z M309.32,4.19c-0.15,0.15-0.15,0.93,0,2.37c0.08,0.83,0.19,1.29,0.31,1.37
			c0.14,0.08,0.44,0.12,0.87,0.09l5.83-0.37c0.19-0.25,0.27-0.94,0.25-2.09c-0.02-0.89-0.1-1.41-0.25-1.56
			c-0.29-0.19-1.6-0.24-3.93-0.16C310.54,3.93,309.51,4.05,309.32,4.19z M318.17,22.94c-0.93,0.25-1.63,0.24-2.09-0.03
			c-0.5-0.31-0.79-1.38-0.87-3.21c-0.04-1.35-0.07-2.46-0.09-3.33c0.06-1.06,0.23-1.79,0.5-2.18c0.33-0.39,0.73-0.56,1.18-0.5
			c0.6,0.08,1.12,0.14,1.56,0.16c4.03-0.33,6.4-0.28,7.1,0.16c0.77,0.39,1.02,1.04,0.75,1.93c-0.1,0.37-0.15,0.81-0.12,1.31
			c0.08,2.04-0.1,3.49-0.56,4.36c-0.25,0.54-0.63,0.91-1.15,1.12c-0.64,0.29-1.35,0.34-2.12,0.16
			C320.59,22.61,319.23,22.63,318.17,22.94z M317.92,16.06c-0.21,0.17-0.3,0.85-0.28,2.06c0.02,1.08,0.1,1.71,0.25,1.9
			c0.15,0.12,0.51,0.19,1.09,0.19c1.29-0.04,2.38-0.05,3.27-0.03c0.25-0.02,0.47-0.04,0.65-0.06c0.33-0.21,0.49-1,0.47-2.37
			c-0.04-0.95-0.17-1.54-0.37-1.74c-0.23-0.19-1.16-0.27-2.8-0.25C318.93,15.77,318.17,15.87,317.92,16.06z"/>
		<path class="st2" d="M357.83,21.04c0.91,0.04,1.41,0.22,1.5,0.53c0.08,0.27-0.32,0.91-1.22,1.93c-0.39,0.44-0.91,0.79-1.56,1.06
			c-0.75,0.42-1.54,0.36-2.37-0.16c-1.35-0.87-3.22-1.37-5.61-1.5c-4.94-0.42-9.57,0.03-13.89,1.34c-1.47,0.5-2.43,0.64-2.87,0.44
			c-0.42-0.23-0.63-0.57-0.65-1.03c-0.02-0.6,0.31-1.23,1-1.87c0.64-0.6,1.43-0.93,2.37-1C341.07,20.53,348.84,20.61,357.83,21.04z
			 M334.06,12.76c-0.48-0.75-0.31-1.5,0.5-2.24c0.4-0.37,1-0.76,1.81-1.15c2.6-1.37,4.4-2.07,5.42-2.09
			c0.56-0.04,0.9,0.13,1.03,0.53c0.08,0.41-0.28,0.82-1.09,1.21c-2.33,1.43-4.15,2.66-5.48,3.68
			C335.3,13.44,334.58,13.46,334.06,12.76z M352.66,3.63c1.16-0.02,1.7,0.2,1.62,0.65c-0.08,0.48-0.59,1.03-1.53,1.65
			c-0.46,0.29-1.26,0.36-2.4,0.22c-1.35-0.19-2.6-0.29-3.74-0.31c-0.08,0.96-0.12,1.69-0.12,2.21c0.04,1.48-0.19,2.37-0.69,2.68
			c-0.52,0.31-0.97,0.27-1.34-0.12c-0.44-0.48-0.59-1.66-0.47-3.55c0-0.41,0-0.82,0-1.21c-1.99,0-3.83,0.32-5.51,0.97
			c-1.58,0.58-2.59,0.58-3.02,0c-0.37-0.52-0.39-1.09-0.06-1.71c0.41-0.66,1.1-1.12,2.06-1.37c1.06-0.21,2.09-0.25,3.08-0.12
			c0.35,0.04,0.85,0.06,1.5,0.06c0.6-0.02,1.19-0.02,1.78,0c-0.04-0.42-0.09-0.84-0.16-1.28c-0.12-1.02,0.2-1.63,0.97-1.84
			c0.75-0.23,1.34-0.02,1.78,0.62c0.46,0.71,0.61,1.54,0.47,2.49C348.77,3.64,350.71,3.63,352.66,3.63z M352.38,12.63
			c0.19,0.33,0.11,0.79-0.22,1.37c-0.17,0.37-0.28,0.97-0.34,1.78c-0.08,0.81-0.23,1.57-0.44,2.27c-0.31,0.89-0.75,1.46-1.31,1.71
			c-0.5,0.25-1.12,0.28-1.87,0.09c-0.93-0.25-2.12-0.36-3.55-0.34c-1.62,0.06-2.72,0.22-3.3,0.47c-0.58,0.29-1.04,0.31-1.37,0.06
			c-0.46-0.31-0.79-0.98-1-1.99c-0.37-2.6-0.62-4.11-0.75-4.55c-0.27-0.58-0.33-1.01-0.19-1.28c0.25-0.37,0.79-0.6,1.62-0.69
			C347.08,10.88,351.32,11.24,352.38,12.63z M349.7,14.53c0.02-0.08,0.03-0.14,0.03-0.16c0.04-0.35-0.03-0.62-0.22-0.81
			c-0.27-0.17-0.85-0.28-1.74-0.34c-3.16,0.02-5.3,0.1-6.42,0.25c-0.42,0.1-0.65,0.23-0.72,0.37c-0.06,0.15-0.09,0.38-0.09,0.72
			c0.87,0.08,2.38,0.12,4.52,0.09C347.4,14.64,348.95,14.6,349.7,14.53z M340.69,16.34c0.12,0.77,0.32,1.21,0.59,1.34
			c0.19,0.08,0.6,0.08,1.25,0c1.87-0.14,3.5-0.19,4.89-0.12c0.91,0.06,1.48,0.02,1.68-0.12c0.19-0.12,0.34-0.5,0.47-1.12
			c-0.75-0.1-2.25-0.14-4.52-0.12C342.92,16.21,341.46,16.26,340.69,16.34z M347.05,7.99c0.35-0.69,1-0.89,1.93-0.62
			c0.33,0.08,0.75,0.26,1.25,0.53c2.95,1.7,4.73,2.99,5.36,3.86c0.27,0.41,0.28,0.76,0.03,1.03c-0.25,0.23-0.72,0.15-1.4-0.25
			c-2.45-1.33-4.49-2.28-6.11-2.87C347.09,9.32,346.74,8.76,347.05,7.99z"/>
		<path class="st2" d="M363.13,16.62c0.37-0.21,0.79-0.21,1.25,0c0.31,0.15,0.48,0.44,0.5,0.87c0,0.25-0.11,0.67-0.31,1.25
			c-0.77,1.68-1.22,2.55-1.34,2.62c-0.1,0.04-0.19-0.01-0.25-0.16c-0.23-0.97-0.34-2.03-0.34-3.18
			C362.58,17.36,362.75,16.89,363.13,16.62z M372.35,12.01c0,0.04,0,0.09,0,0.16c0.39-0.02,0.76,0,1.09,0.06
			c1.14,0.15,1.91,0.35,2.31,0.62c0.69,0.54,1,1.09,0.93,1.65c-0.02,0.27-0.17,0.75-0.44,1.43c-0.25,0.67-0.38,1.34-0.4,2.03
			c-0.1,1.29-0.45,2.53-1.03,3.74c-0.66,1.27-1.38,1.91-2.15,1.93c-0.75,0-0.92-0.47-0.53-1.4c1.18-2.8,1.73-4.98,1.65-6.54
			c-0.15-0.66-0.47-1.19-0.97-1.59c-0.19-0.15-0.6-0.23-1.25-0.25c-1.95-0.08-3.83,0.34-5.64,1.28c-1.18,0.48-2.02,0.43-2.52-0.16
			c-0.46-0.6-0.18-1.32,0.84-2.15c0.27-0.25,0.39-0.91,0.37-1.99c0.04-3.82,0.02-6.45-0.06-7.88c-0.06-0.89,0.09-1.57,0.47-2.02
			c0.35-0.38,0.98-0.5,1.87-0.38c0.6,0.06,2.59,0.09,5.95,0.09c1.7-0.04,2.66,0.09,2.87,0.4c0.29,0.39,0.28,0.76-0.03,1.09
			c-0.19,0.35-1.26,0.5-3.21,0.44c-0.1,0.17-0.17,0.76-0.19,1.78c1.45,0,2.37,0.16,2.74,0.47c0.23,0.25,0.28,0.57,0.16,0.97
			c-0.15,0.39-0.65,0.59-1.53,0.59c-0.52-0.02-1-0.02-1.43,0c0.02,0.54,0.03,1.07,0.03,1.59c1.2-0.02,2,0.14,2.4,0.47
			c0.23,0.25,0.28,0.57,0.16,0.97c-0.15,0.39-0.65,0.59-1.53,0.59c-0.37-0.02-0.72-0.02-1.03,0
			C372.29,11.02,372.33,11.7,372.35,12.01z M365.56,16.56c0.31-0.29,0.7-0.36,1.15-0.22c0.33,0.1,0.54,0.34,0.62,0.72
			c0.06,0.21,0.03,0.57-0.09,1.09c-0.39,1.54-0.65,2.35-0.78,2.43c-0.1,0.06-0.2,0.03-0.28-0.09c-0.39-1-0.69-1.84-0.87-2.52
			C365.16,17.36,365.24,16.89,365.56,16.56z M366.74,10.33c-0.02,0.29-0.03,0.59-0.03,0.9c0.08,0.91,0.54,1.31,1.37,1.18
			c0.54-0.1,1.07-0.17,1.59-0.19c-0.02-0.19,0-0.35,0.06-0.5c0.06-0.31,0.1-0.87,0.12-1.68c-0.75,0-1.4,0.06-1.96,0.19
			C367.46,10.3,367.07,10.33,366.74,10.33z M369.89,7.96c0.06-0.46,0.06-0.96,0-1.53c-1,0.1-1.97,0.2-2.93,0.28
			c-0.04,0.46-0.07,0.91-0.09,1.37c0.44-0.12,1.04-0.18,1.81-0.16C369.09,7.93,369.49,7.94,369.89,7.96z M369.76,2.57
			c-1.25,0.02-1.97,0.1-2.18,0.25c-0.39,0.27-0.58,0.82-0.56,1.65c0.58-0.21,1.53-0.25,2.83-0.12c-0.02-0.75-0.04-1.26-0.06-1.53
			C369.77,2.72,369.76,2.63,369.76,2.57z M368.05,16.34c0.31-0.29,0.7-0.37,1.15-0.25c0.31,0.08,0.53,0.32,0.65,0.72
			c0.04,0.19,0.02,0.53-0.06,1.03c-0.42,1.52-0.65,2.3-0.72,2.37c-0.1,0.06-0.2,0.03-0.28-0.09c-0.29-0.54-0.6-1.32-0.93-2.34
			C367.71,17.15,367.78,16.67,368.05,16.34z M370.54,16.09c0.29-0.29,0.69-0.37,1.18-0.25c0.29,0.08,0.5,0.32,0.62,0.72
			c0.06,0.21,0.03,0.54-0.09,1c-0.33,1.39-0.56,2.15-0.69,2.27c-0.1,0.06-0.2,0.03-0.28-0.09c-0.31-0.64-0.62-1.38-0.93-2.21
			C370.21,16.9,370.27,16.42,370.54,16.09z M378.05,9.61c-0.67,0.4-1.28,0.49-1.84,0.28c-0.62-0.35-0.97-0.73-1.03-1.12
			c-0.02-0.48,0.19-0.84,0.62-1.09c3.82-1.95,5.51-4.05,5.08-6.29c-0.04-0.44,0.03-0.73,0.22-0.87c0.27-0.31,0.62-0.39,1.06-0.25
			c0.62,0.17,1.04,0.54,1.25,1.12c0.1,0.31,0.16,0.62,0.16,0.93c0.21,0.17,0.45,0.37,0.72,0.62c0.39,0.42,1.32,1.07,2.77,1.96
			c2.14,1.45,3.66,2.41,4.55,2.87c0.48,0.23,0.72,0.42,0.72,0.56c-0.02,0.29-0.28,0.59-0.78,0.9c-0.12,0.06-0.22,0.12-0.28,0.19
			c-2.45,1.14-3.89,0.84-4.33-0.9c-0.35-1.08-1.12-2.09-2.31-3.02c-0.15-0.1-0.81-0.41-1.99-0.9C381.76,6.63,380.23,8.3,378.05,9.61
			z M375.68,23.35c-0.56-0.06-0.56-0.47,0-1.21c0.79-0.91,1.32-1.69,1.59-2.34c0.23-0.52,0.37-0.93,0.44-1.25
			c0.1-0.58,0.38-1.01,0.84-1.28c0.44-0.27,0.87-0.12,1.31,0.44c0.23,0.31,0.33,0.63,0.31,0.97c0.06,0.04,0.25,0.22,0.56,0.53
			c0.98,0.96,1.47,1.65,1.5,2.09c0.04,0.39-0.09,0.62-0.4,0.68c-0.37,0.08-0.82-0.07-1.34-0.47c-0.5-0.35-0.98-0.59-1.43-0.72
			C377.57,22.52,376.45,23.37,375.68,23.35z M380.07,16.78c-1.25,0.21-1.97,0.25-2.18,0.12c-0.48-0.29-0.76-1.37-0.84-3.24
			c-0.02-0.12-0.04-0.23-0.06-0.31c-0.04-0.6,0.1-1.07,0.44-1.4c0.21-0.19,0.57-0.29,1.09-0.31c0.17-0.02,0.37-0.03,0.62-0.03
			c1.87-0.19,3.05-0.06,3.55,0.37c0.44,0.37,0.61,0.93,0.53,1.68c-0.08,0.19-0.16,0.39-0.22,0.59c0.04,1.04-0.16,1.72-0.59,2.06
			c-0.5,0.42-1.18,0.55-2.06,0.41C380.31,16.73,380.22,16.76,380.07,16.78z M378.95,13.35c-0.04,0.08-0.02,0.42,0.06,1
			c0.06,0.37,0.12,0.57,0.19,0.59c0.06,0.02,0.14,0.02,0.22,0l1.53-0.25c0.06-0.1,0.08-0.38,0.06-0.84c0-0.37-0.03-0.59-0.09-0.65
			c-0.1-0.04-0.48-0.03-1.12,0.03C379.29,13.29,379.01,13.33,378.95,13.35z M383.13,8.18c1.99,0.02,3.08,0.19,3.27,0.5
			c0.1,0.21,0.11,0.51,0.03,0.9c-0.08,0.29-0.29,0.54-0.62,0.75c-0.11,0.04-0.2,0.05-0.28,0.03c-0.89-0.15-1.62-0.22-2.18-0.22
			c-0.42,0.04-0.78,0.06-1.09,0.06c-1.43,0.31-2.32,0.3-2.65-0.03c-0.37-0.44-0.36-0.88,0.03-1.34c0.31-0.33,0.94-0.54,1.9-0.62
			C381.97,8.17,382.5,8.16,383.13,8.18z M391.6,20.23c0.83,0.06,1.05,0.42,0.65,1.06c-0.39,0.6-1,1.07-1.81,1.4
			c-0.87,0.37-1.5,0.34-1.87-0.09c-0.77-1-1.53-1.62-2.27-1.87c-1.54,1.64-2.68,2.43-3.43,2.37c-0.54-0.08-0.52-0.48,0.06-1.18
			c0.79-0.87,1.34-1.65,1.65-2.34c0.56-1.41,1.01-2.19,1.34-2.34c0.46-0.27,0.88-0.12,1.28,0.47c0.29,0.46,0.36,0.91,0.22,1.37
			C388.71,19.91,390.1,20.3,391.6,20.23z M386.83,16.65c-1.02,0.33-1.71,0.37-2.09,0.12c-0.48-0.29-0.76-1.37-0.84-3.24
			c-0.02-0.12-0.04-0.23-0.06-0.31c-0.04-0.6,0.1-1.07,0.44-1.4c0.21-0.19,0.57-0.29,1.09-0.31h0.03c2.06-0.29,3.4-0.18,4.02,0.34
			c0.44,0.37,0.61,0.93,0.53,1.68c-0.08,0.19-0.16,0.38-0.22,0.59c0.04,1.04-0.16,1.72-0.59,2.06c-0.5,0.42-1.18,0.55-2.06,0.4
			C387.06,16.61,386.98,16.63,386.83,16.65z M385.81,13.23c-0.04,0.08-0.02,0.41,0.06,1c0.06,0.37,0.12,0.57,0.19,0.59
			c0.04,0.02,0.1,0.02,0.19,0l1.43-0.25c0.06-0.1,0.08-0.38,0.06-0.84c0-0.37-0.03-0.59-0.09-0.65c-0.1-0.04-0.45-0.03-1.03,0.03
			C386.1,13.16,385.83,13.2,385.81,13.23z"/>
		<path class="st2" d="M410.45,13.97c0,2.74,0.04,4.64,0.12,5.7c0.17,1.77-0.04,2.97-0.62,3.61c-0.52,0.54-1.1,0.47-1.74-0.22
			c-0.42-0.46-0.56-1.37-0.44-2.74c0.08-2.1,0.13-4.22,0.16-6.36c-2.47,0-4.44,0.17-5.89,0.5c-1.31,0.27-2.16,0.27-2.55,0
			c-0.66-0.42-1-1.19-1-2.34c-0.06-1.14-0.12-2.27-0.19-3.4c-0.15-1.2,0.03-2.06,0.53-2.55c0.31-0.29,0.82-0.44,1.53-0.44
			c1.68-0.02,3.5-0.07,5.45-0.16c0.73-0.04,1.41-0.05,2.06-0.03c-0.02-1.1-0.04-1.87-0.06-2.31c-0.1-1.16,0.07-1.93,0.53-2.3
			c0.71-0.56,1.32-0.55,1.84,0.03c0.52,0.62,0.72,1.54,0.59,2.74c-0.04,0.56-0.07,1.16-0.09,1.81c5.23-0.12,8.2,0.1,8.91,0.69
			c0.64,0.52,0.89,1.29,0.75,2.3c-0.19,0.71-0.29,1.48-0.31,2.31c0.02,1.43-0.26,2.38-0.84,2.84c-0.69,0.56-1.63,0.74-2.83,0.53
			C415.65,14.05,413.69,13.97,410.45,13.97z M400.95,8.12c-0.15,0.12-0.15,0.88,0,2.27c0.1,0.83,0.22,1.29,0.34,1.37
			c0.33,0.23,1.01,0.33,2.02,0.31c1.68-0.08,3.22-0.13,4.61-0.16c-0.02-1.5-0.03-2.99-0.03-4.49C403.72,7.49,401.4,7.72,400.95,8.12
			z M410.6,7.4c-0.06,1.39-0.1,2.88-0.12,4.46c1.95-0.06,3.41-0.06,4.36,0c1.16,0.04,1.91-0.09,2.24-0.41
			c0.19-0.21,0.27-0.88,0.25-2.02c-0.02-0.87-0.1-1.38-0.25-1.53C416.57,7.54,414.41,7.38,410.6,7.4z"/>
		<path class="st2" d="M432.13,8.33c0.35,0.27,0.33,0.81-0.06,1.62c-0.85,1.29-1.51,2.49-1.96,3.61c-0.25,0.91-0.62,1.44-1.12,1.59
			c-0.52,0.13-1.1-0.16-1.74-0.87c-0.44-0.48-0.61-0.91-0.53-1.31c0.06-0.41,0.38-0.78,0.97-1.09c0.77-0.54,1.74-1.53,2.93-2.96
			C431.31,8.28,431.82,8.08,432.13,8.33z M436.56,7.12c0.85,0.25,1.28,0.82,1.28,1.71c0,0.91-0.26,1.51-0.78,1.78
			c-0.46,0.29-0.72,0.79-0.78,1.5c-0.04,0.71,0.1,1.29,0.44,1.74c0.48,0.69,1.34,1.28,2.59,1.78c3.32,1.18,6.46,1.61,9.41,1.28
			c1.39-0.08,3.19-0.84,5.39-2.27c0.83-0.5,1.21-0.42,1.12,0.22c-0.06,0.91-1.23,2.6-3.49,5.05c-1.14,1.08-2.52,1.45-4.14,1.12
			c-2.97-0.66-5.83-1.63-8.57-2.9c-2.68-1.31-4.19-2.44-4.52-3.4c-0.33-0.95-0.21-3.27,0.37-6.95
			C435.04,7.13,435.6,6.91,436.56,7.12z M444.5,4.47c0.81,0.44,1.23,0.95,1.25,1.53c0.02,0.58-0.29,1.06-0.93,1.43
			c-0.37,0.23-0.88,0.67-1.53,1.31c-1.25,1.18-2.04,1.81-2.37,1.87c-0.46,0.15-0.69,0.03-0.69-0.34c0.02-0.27,0.38-1.06,1.09-2.37
			c0.89-1.66,1.41-2.68,1.56-3.05C443.19,4.2,443.73,4.08,444.5,4.47z M449.61,8.68c0.66,0.54,0.99,1.1,0.97,1.68
			c-0.08,0.6-0.48,1.03-1.18,1.28c-0.37,0.12-0.91,0.42-1.62,0.87c-1.33,0.87-2.16,1.31-2.49,1.31c-0.46,0.02-0.66-0.13-0.59-0.47
			c0.1-0.39,1.19-1.93,3.27-4.61C448.35,8.14,448.9,8.12,449.61,8.68z"/>
	</g>
	<path class="st2" d="M112.63,38.24h-4.57v-2.31h11.67v2.31h-4.58v14.91h-2.53V38.24z"/>
	<path class="st2" d="M125.49,52.06h-0.04c-0.22,0.42-0.56,0.72-1.03,0.92c-0.46,0.21-1.09,0.31-1.9,0.31
		c-1.33-0.02-2.35-0.38-3.06-1.09c-0.75-0.69-1.13-1.58-1.13-2.66c0-1.03,0.33-1.88,0.98-2.56c0.66-0.69,1.62-1.05,2.88-1.06h3.3
		v-1.29c0.02-1.08-0.8-1.61-2.44-1.58c-0.6,0-1.06,0.06-1.41,0.19c-0.36,0.15-0.64,0.4-0.85,0.76l-1.88-1.48
		c0.91-1.22,2.24-1.82,4.01-1.79c1.49-0.02,2.69,0.28,3.58,0.87c0.89,0.61,1.34,1.67,1.36,3.17v8.37h-2.38V52.06z M125.49,47.95
		h-2.86c-1.39,0.03-2.08,0.52-2.06,1.48c0,0.42,0.18,0.77,0.54,1.06c0.34,0.32,0.91,0.48,1.71,0.48c1,0.02,1.71-0.11,2.12-0.37
		c0.37-0.26,0.56-0.85,0.56-1.77V47.95z"/>
	<path class="st2" d="M131.42,35.93h2.38v2.45h-2.38V35.93z M131.42,40.89h2.38v12.26h-2.38V40.89z"/>
	<path class="st2" d="M144.08,44.56h-0.05l-2.48,8.59h-2.1l-3.8-12.26h2.53l2.28,8.6h0.05l2.7-8.6h1.73l2.7,8.6h0.05l2.26-8.6h2.53
		l-3.79,12.26h-2.12L144.08,44.56z"/>
	<path class="st2" d="M160.86,52.06h-0.05c-0.22,0.42-0.56,0.72-1.03,0.92c-0.46,0.21-1.09,0.31-1.9,0.31
		c-1.33-0.02-2.35-0.38-3.06-1.09c-0.75-0.69-1.13-1.58-1.13-2.66c0-1.03,0.33-1.88,0.98-2.56c0.66-0.69,1.62-1.05,2.88-1.06h3.3
		v-1.29c0.02-1.08-0.8-1.61-2.44-1.58c-0.6,0-1.06,0.06-1.41,0.19c-0.36,0.15-0.64,0.4-0.85,0.76l-1.88-1.48
		c0.91-1.22,2.24-1.82,4.01-1.79c1.49-0.02,2.69,0.28,3.58,0.87c0.89,0.61,1.35,1.67,1.36,3.17v8.37h-2.38V52.06z M160.86,47.95
		h-2.87c-1.39,0.03-2.08,0.52-2.06,1.48c0,0.42,0.18,0.77,0.54,1.06c0.34,0.32,0.91,0.48,1.71,0.48c1,0.02,1.71-0.11,2.12-0.37
		c0.37-0.26,0.56-0.85,0.56-1.77V47.95z"/>
	<path class="st2" d="M166.71,40.89h2.38v1.3h0.04c0.79-0.97,1.81-1.45,3.09-1.45c0.98,0,1.88,0.36,2.7,1.08
		c0.81,0.72,1.23,1.79,1.27,3.19v8.15h-2.38v-7.31c0-0.86-0.22-1.51-0.66-1.96c-0.43-0.46-1-0.69-1.68-0.69
		c-0.69,0-1.25,0.23-1.69,0.69c-0.45,0.45-0.67,1.1-0.67,1.96v7.31h-2.38V40.89z"/>
	<path class="st2" d="M196.96,48.34c-0.37,1.6-1.06,2.82-2.1,3.68c-1.06,0.85-2.32,1.27-3.76,1.27c-1.31-0.03-2.41-0.36-3.28-0.99
		c-0.89-0.61-1.54-1.31-1.94-2.1c-0.12-0.26-0.23-0.51-0.33-0.74c-0.09-0.24-0.17-0.55-0.23-0.92c-0.11-0.69-0.17-2.02-0.17-3.99
		c0-2,0.06-3.34,0.17-4.02c0.12-0.68,0.31-1.22,0.56-1.64c0.4-0.79,1.05-1.5,1.94-2.13c0.88-0.63,1.97-0.95,3.28-0.97
		c1.61,0.02,2.92,0.51,3.94,1.47c1.01,0.98,1.65,2.18,1.92,3.62h-2.68c-0.21-0.69-0.58-1.29-1.12-1.78
		c-0.56-0.47-1.25-0.71-2.06-0.72c-0.6,0.02-1.11,0.14-1.54,0.37c-0.44,0.24-0.79,0.53-1.05,0.89c-0.33,0.37-0.55,0.85-0.65,1.43
		c-0.12,0.62-0.18,1.77-0.18,3.47s0.06,2.84,0.18,3.45c0.11,0.6,0.32,1.08,0.65,1.46c0.27,0.35,0.62,0.64,1.05,0.86
		c0.43,0.26,0.94,0.39,1.54,0.39c1.42,0,2.48-0.79,3.19-2.36H196.96z"/>
	<path class="st2" d="M200.74,47.95c0,0.99,0.28,1.73,0.83,2.25c0.51,0.52,1.18,0.78,2.01,0.78c0.97,0,1.84-0.4,2.6-1.19l1.73,1.52
		c-1.21,1.34-2.64,2-4.28,1.98c-0.62,0-1.24-0.09-1.83-0.28c-0.3-0.1-0.59-0.24-0.87-0.41c-0.3-0.15-0.58-0.33-0.83-0.55
		c-0.5-0.46-0.91-1.09-1.22-1.91c-0.34-0.79-0.52-1.81-0.52-3.07c0-1.21,0.15-2.22,0.45-3.02c0.3-0.82,0.68-1.46,1.14-1.94
		c0.47-0.48,1-0.83,1.59-1.04c0.58-0.21,1.15-0.32,1.72-0.32c1.36,0.02,2.5,0.48,3.44,1.38c0.95,0.92,1.44,2.19,1.45,3.8v2.03
		H200.74z M205.77,45.92c-0.03-0.96-0.28-1.68-0.75-2.17c-0.46-0.47-1.05-0.7-1.77-0.7c-0.72,0-1.31,0.23-1.77,0.7
		c-0.45,0.49-0.7,1.21-0.75,2.17H205.77z"/>
	<path class="st2" d="M211.05,40.89h2.38v1.3h0.04c0.79-0.97,1.81-1.45,3.09-1.45c0.98,0,1.88,0.36,2.7,1.08
		c0.81,0.72,1.23,1.79,1.27,3.19v8.15h-2.38v-7.31c0-0.86-0.22-1.51-0.66-1.96c-0.43-0.46-1-0.69-1.68-0.69
		c-0.69,0-1.25,0.23-1.69,0.69c-0.45,0.45-0.67,1.1-0.67,1.96v7.31h-2.38V40.89z"/>
	<path class="st2" d="M224.18,37.15h2.38v3.73h1.74v1.89h-1.74v7.15c-0.02,0.62,0.27,0.92,0.85,0.91h0.89v2.31h-1.24
		c-0.84,0-1.52-0.27-2.06-0.8c-0.55-0.51-0.82-1.25-0.82-2.22v-7.35h-1.2v-1.89h1.2V37.15z"/>
	<path class="st2" d="M232.55,47.95c0,0.99,0.28,1.73,0.82,2.25c0.51,0.52,1.18,0.78,2.01,0.78c0.97,0,1.84-0.4,2.6-1.19l1.73,1.52
		c-1.21,1.34-2.64,2-4.28,1.98c-0.62,0-1.23-0.09-1.83-0.28c-0.3-0.1-0.59-0.24-0.87-0.41c-0.3-0.15-0.58-0.33-0.83-0.55
		c-0.5-0.46-0.91-1.09-1.22-1.91c-0.34-0.79-0.52-1.81-0.52-3.07c0-1.21,0.15-2.22,0.45-3.02c0.3-0.82,0.68-1.46,1.14-1.94
		c0.47-0.48,1-0.83,1.59-1.04c0.58-0.21,1.15-0.32,1.72-0.32c1.36,0.02,2.5,0.48,3.44,1.38c0.95,0.92,1.44,2.19,1.45,3.8v2.03
		H232.55z M237.57,45.92c-0.03-0.96-0.28-1.68-0.75-2.17c-0.46-0.47-1.05-0.7-1.77-0.7c-0.72,0-1.31,0.23-1.77,0.7
		c-0.45,0.49-0.7,1.21-0.75,2.17H237.57z"/>
	<path class="st2" d="M242.86,40.89h2.38v1.3h0.05c0.79-0.97,1.82-1.45,3.09-1.45c0.95,0.02,1.79,0.33,2.5,0.94l-1.74,2.13
		c-0.5-0.41-1.03-0.62-1.57-0.62c-0.61,0-1.13,0.2-1.57,0.61c-0.49,0.4-0.74,1.05-0.76,1.95v7.39h-2.38V40.89z"/>
	<path class="st2" d="M258.28,35.93h10.66v2.45h-8.13v5.09h6.94v2.31h-6.94v7.36h-2.53V35.93z"/>
	<path class="st2" d="M270.03,47c0-1.29,0.1-2.29,0.31-2.98c0.21-0.68,0.54-1.25,0.98-1.71c0.33-0.41,0.79-0.77,1.37-1.09
		c0.58-0.31,1.32-0.47,2.23-0.48c0.94,0.02,1.7,0.18,2.28,0.48c0.57,0.32,1.01,0.69,1.33,1.1c0.47,0.46,0.81,1.03,1,1.71
		c0.19,0.69,0.29,1.69,0.29,2.98c0,1.29-0.1,2.28-0.29,2.95c-0.2,0.68-0.53,1.26-1.01,1.76c-0.15,0.18-0.34,0.36-0.56,0.53
		c-0.2,0.2-0.45,0.37-0.77,0.51c-0.58,0.34-1.34,0.52-2.28,0.53c-0.91-0.02-1.65-0.19-2.23-0.53c-0.59-0.31-1.04-0.65-1.37-1.04
		c-0.44-0.5-0.77-1.08-0.98-1.76C270.14,49.28,270.03,48.3,270.03,47z M277.44,47.03c0-0.88-0.04-1.52-0.11-1.92
		c-0.08-0.39-0.23-0.73-0.47-1.02c-0.18-0.28-0.44-0.49-0.78-0.65c-0.33-0.17-0.71-0.25-1.15-0.25c-0.41,0-0.78,0.08-1.12,0.25
		c-0.33,0.16-0.6,0.38-0.8,0.65c-0.21,0.29-0.36,0.63-0.45,1.02c-0.09,0.4-0.14,1.04-0.14,1.9c0,0.85,0.05,1.48,0.14,1.87
		c0.09,0.4,0.24,0.76,0.45,1.07c0.21,0.24,0.47,0.45,0.8,0.63c0.34,0.17,0.72,0.26,1.12,0.26c0.44,0,0.82-0.09,1.15-0.26
		c0.34-0.18,0.6-0.39,0.78-0.63c0.24-0.31,0.39-0.66,0.47-1.07C277.4,48.48,277.44,47.87,277.44,47.03z"/>
	<path class="st2" d="M282.72,40.89h2.38v1.3h0.05c0.79-0.97,1.81-1.45,3.09-1.45c0.95,0.02,1.79,0.33,2.5,0.94L289,43.8
		c-0.5-0.41-1.03-0.62-1.57-0.62c-0.61,0-1.13,0.2-1.57,0.61c-0.49,0.4-0.74,1.05-0.76,1.95v7.39h-2.38V40.89z"/>
	<path class="st2" d="M298.15,35.93h5.84c2.26,0.02,3.95,0.98,5.08,2.91c0.4,0.64,0.66,1.32,0.77,2.03
		c0.08,0.71,0.12,1.93,0.12,3.67c0,1.85-0.06,3.14-0.19,3.87c-0.06,0.37-0.15,0.7-0.27,0.99c-0.13,0.28-0.29,0.58-0.47,0.89
		c-0.49,0.81-1.17,1.48-2.04,2.01c-0.86,0.57-1.92,0.85-3.17,0.85h-5.66V35.93z M300.67,50.69h3.03c1.42,0,2.45-0.5,3.09-1.5
		c0.28-0.37,0.46-0.84,0.54-1.41c0.07-0.56,0.1-1.61,0.1-3.15c0-1.5-0.04-2.57-0.1-3.22c-0.09-0.65-0.31-1.17-0.65-1.58
		c-0.7-1-1.7-1.49-2.98-1.46h-3.03V50.69z"/>
	<path class="st2" d="M313.17,40.89h2.38v1.3h0.05c0.79-0.97,1.82-1.45,3.09-1.45c0.95,0.02,1.79,0.33,2.49,0.94l-1.74,2.13
		c-0.5-0.41-1.03-0.62-1.57-0.62c-0.61,0-1.13,0.2-1.57,0.61c-0.49,0.4-0.74,1.05-0.76,1.95v7.39h-2.38V40.89z"/>
	<path class="st2" d="M322.29,40.89h2.38v7.31c0,0.83,0.23,1.47,0.68,1.94c0.44,0.46,1.01,0.7,1.69,0.7c0.69,0,1.25-0.23,1.68-0.7
		c0.44-0.47,0.66-1.11,0.66-1.94v-7.31h2.38v12.26h-2.38v-1.31h-0.05c-0.79,0.97-1.81,1.45-3.08,1.45
		c-0.98-0.02-1.87-0.38-2.66-1.11c-0.86-0.71-1.3-1.75-1.31-3.14V40.89z"/>
	<path class="st2" d="M341.96,51.87c-0.79,0.92-1.81,1.39-3.06,1.42c-0.77-0.02-1.41-0.19-1.92-0.51c-0.53-0.31-0.94-0.64-1.22-0.99
		c-0.31-0.4-0.54-0.89-0.67-1.48c-0.14-0.57-0.22-1.67-0.22-3.29c0-1.65,0.07-2.76,0.22-3.35c0.14-0.57,0.36-1.06,0.67-1.45
		c0.28-0.38,0.69-0.73,1.22-1.03c0.51-0.29,1.15-0.44,1.92-0.46c1.18,0,2.2,0.48,3.06,1.45v-1.3h2.38v11.96
		c-0.03,1.84-0.55,3.2-1.54,4.06c-1.01,0.89-2.21,1.33-3.61,1.33c-1.61-0.03-2.98-0.71-4.11-2.05l1.85-1.52
		c0.31,0.29,0.66,0.54,1.05,0.75c0.4,0.23,0.82,0.35,1.26,0.37c0.82,0,1.47-0.23,1.97-0.7c0.49-0.48,0.74-1.13,0.76-1.97V51.87z
		 M337.24,47.03c0,0.94,0.03,1.59,0.09,1.94c0.05,0.37,0.18,0.68,0.38,0.92c0.16,0.22,0.4,0.42,0.73,0.6
		c0.31,0.22,0.7,0.33,1.17,0.33c0.46,0,0.85-0.11,1.17-0.33c0.31-0.18,0.55-0.38,0.71-0.6c0.2-0.25,0.33-0.55,0.4-0.92
		c0.04-0.36,0.07-1,0.07-1.94c0-0.96-0.02-1.62-0.07-1.99c-0.07-0.37-0.2-0.67-0.4-0.9c-0.16-0.22-0.4-0.44-0.71-0.65
		c-0.31-0.18-0.7-0.28-1.17-0.3c-0.47,0.01-0.85,0.11-1.17,0.3c-0.33,0.21-0.57,0.43-0.73,0.65c-0.2,0.23-0.32,0.53-0.38,0.9
		C337.27,45.41,337.24,46.07,337.24,47.03z"/>
	<path class="st2" d="M353.85,35.93h10.66v2.45h-8.13v4.93h6.94v2.31h-6.94v5.07h8.13v2.46h-10.66V35.93z"/>
	<path class="st2" d="M365.41,40.89h2.53l2.79,8.59h0.05l2.78-8.59h2.54l-4.35,12.26h-1.97L365.41,40.89z"/>
	<path class="st2" d="M384.07,52.06h-0.05c-0.22,0.42-0.56,0.72-1.03,0.92c-0.46,0.21-1.09,0.31-1.9,0.31
		c-1.33-0.02-2.35-0.38-3.06-1.09c-0.75-0.69-1.13-1.58-1.13-2.66c0-1.03,0.33-1.88,0.98-2.56c0.66-0.69,1.62-1.05,2.88-1.06h3.3
		v-1.29c0.02-1.08-0.8-1.61-2.44-1.58c-0.6,0-1.06,0.06-1.41,0.19c-0.36,0.15-0.64,0.4-0.85,0.76l-1.88-1.48
		c0.91-1.22,2.24-1.82,4.01-1.79c1.49-0.02,2.69,0.28,3.58,0.87c0.89,0.61,1.35,1.67,1.36,3.17v8.37h-2.38V52.06z M384.07,47.95
		h-2.87c-1.39,0.03-2.08,0.52-2.06,1.48c0,0.42,0.18,0.77,0.54,1.06c0.34,0.32,0.91,0.48,1.71,0.48c1,0.02,1.71-0.11,2.12-0.37
		c0.37-0.26,0.56-0.85,0.56-1.77V47.95z"/>
	<path class="st2" d="M389.93,35.93h2.38v14.07c0,0.56,0.3,0.84,0.9,0.84h0.83v2.31h-1.06c-0.87,0-1.58-0.22-2.15-0.67
		c-0.59-0.45-0.89-1.22-0.89-2.29V35.93z"/>
	<path class="st2" d="M396.17,40.89h2.38v7.31c0,0.83,0.22,1.47,0.68,1.94c0.44,0.46,1.01,0.7,1.69,0.7c0.69,0,1.25-0.23,1.68-0.7
		c0.44-0.47,0.66-1.11,0.66-1.94v-7.31h2.38v12.26h-2.38v-1.31h-0.04c-0.79,0.97-1.81,1.45-3.08,1.45
		c-0.98-0.02-1.87-0.38-2.66-1.11c-0.86-0.71-1.3-1.75-1.31-3.14V40.89z"/>
	<path class="st2" d="M415.39,52.06h-0.04c-0.22,0.42-0.57,0.72-1.03,0.92c-0.46,0.21-1.09,0.31-1.9,0.31
		c-1.33-0.02-2.35-0.38-3.06-1.09c-0.76-0.69-1.13-1.58-1.13-2.66c0-1.03,0.33-1.88,0.98-2.56c0.66-0.69,1.62-1.05,2.88-1.06h3.3
		v-1.29c0.02-1.08-0.8-1.61-2.44-1.58c-0.59,0-1.06,0.06-1.41,0.19c-0.36,0.15-0.64,0.4-0.85,0.76l-1.88-1.48
		c0.91-1.22,2.24-1.82,4.01-1.79c1.49-0.02,2.69,0.28,3.58,0.87c0.89,0.61,1.35,1.67,1.36,3.17v8.37h-2.38V52.06z M415.39,47.95
		h-2.86c-1.39,0.03-2.08,0.52-2.06,1.48c0,0.42,0.18,0.77,0.54,1.06c0.34,0.32,0.91,0.48,1.71,0.48c1,0.02,1.71-0.11,2.12-0.37
		c0.37-0.26,0.56-0.85,0.56-1.77V47.95z"/>
	<path class="st2" d="M421.39,37.15h2.38v3.73h1.74v1.89h-1.74v7.15c-0.02,0.62,0.27,0.92,0.85,0.91h0.89v2.31h-1.25
		c-0.84,0-1.52-0.27-2.06-0.8c-0.55-0.51-0.82-1.25-0.82-2.22v-7.35h-1.2v-1.89h1.2V37.15z"/>
	<path class="st2" d="M428.04,35.93h2.38v2.45h-2.38V35.93z M428.04,40.89h2.38v12.26h-2.38V40.89z"/>
	<path class="st2" d="M433.18,47c0-1.29,0.1-2.29,0.31-2.98c0.21-0.68,0.54-1.25,0.98-1.71c0.33-0.41,0.79-0.77,1.37-1.09
		c0.58-0.31,1.32-0.47,2.23-0.48c0.94,0.02,1.7,0.18,2.28,0.48c0.57,0.32,1.01,0.69,1.33,1.1c0.47,0.46,0.81,1.03,1,1.71
		c0.19,0.69,0.29,1.69,0.29,2.98c0,1.29-0.1,2.28-0.29,2.95c-0.2,0.68-0.53,1.26-1.01,1.76c-0.15,0.18-0.34,0.36-0.56,0.53
		c-0.2,0.2-0.45,0.37-0.77,0.51c-0.58,0.34-1.34,0.52-2.28,0.53c-0.91-0.02-1.65-0.19-2.23-0.53c-0.59-0.31-1.04-0.65-1.37-1.04
		c-0.44-0.5-0.77-1.08-0.98-1.76C433.29,49.28,433.18,48.3,433.18,47z M440.59,47.03c0-0.88-0.04-1.52-0.12-1.92
		c-0.08-0.39-0.23-0.73-0.47-1.02c-0.18-0.28-0.44-0.49-0.78-0.65c-0.33-0.17-0.71-0.25-1.15-0.25c-0.41,0-0.78,0.08-1.12,0.25
		c-0.33,0.16-0.6,0.38-0.8,0.65c-0.21,0.29-0.36,0.63-0.45,1.02c-0.09,0.4-0.14,1.04-0.14,1.9c0,0.85,0.05,1.48,0.14,1.87
		c0.09,0.4,0.24,0.76,0.45,1.07c0.21,0.24,0.47,0.45,0.8,0.63c0.34,0.17,0.72,0.26,1.12,0.26c0.44,0,0.82-0.09,1.15-0.26
		c0.34-0.18,0.6-0.39,0.78-0.63c0.24-0.31,0.39-0.66,0.47-1.07C440.55,48.48,440.59,47.87,440.59,47.03z"/>
	<path class="st2" d="M445.87,40.89h2.38v1.3h0.05c0.79-0.97,1.81-1.45,3.09-1.45c0.98,0,1.88,0.36,2.7,1.08
		c0.81,0.72,1.23,1.79,1.27,3.19v8.15h-2.38v-7.31c0-0.86-0.22-1.51-0.66-1.96c-0.43-0.46-1-0.69-1.68-0.69
		c-0.69,0-1.25,0.23-1.69,0.69c-0.45,0.45-0.68,1.1-0.68,1.96v7.31h-2.38V40.89z"/>
</g>
</svg>
