<?xml version="1.0" encoding="utf-8"?>
<!-- Generator: Adobe Illustrator 27.9.1, SVG Export Plug-In . SVG Version: 6.00 Build 0)  -->
<svg version="1.1" id="圖層_3" xmlns="http://www.w3.org/2000/svg" xmlns:xlink="http://www.w3.org/1999/xlink" x="0px" y="0px"
	 viewBox="0 0 506.2 61.9" style="enable-background:new 0 0 506.2 61.9;" xml:space="preserve">
<style type="text/css">
	.st0{fill:#00458B;}
</style>
<g>
	<path class="st0" d="M33.1,44.5c-3.4,3.4-9.2,6.3-14.7,7.5c-0.8-1.3-2.3-3.3-3.4-4.3c5.3-0.8,11-2.6,13.9-4.9L33.1,44.5z
		 M40.2,42.3V53h-5.7V42.3H16.1V38h18.4v-2.3H30l0.1,0.7l-3.3,1c0-0.5-0.1-1-0.2-1.5c-6.4,0.7-7.6,1-8.4,1.3
		c-0.2-0.8-0.8-2.8-1.3-3.9c0.9-0.2,1.7-1,2.7-2.1c0.4-0.4,1.2-1.4,2.2-2.7c-2.9,0.3-3.8,0.6-4.3,0.8c-0.2-0.9-0.9-2.8-1.4-3.9
		c0.6-0.1,1.2-0.7,1.8-1.5c0.5-0.8,2.4-3.6,3.4-6.5l4.2,1.4c-1.1,2.2-2.5,4.4-3.9,6.2l2.7-0.1c0.7-1.1,1.3-2.3,1.9-3.4l3.7,1.8v-3.4
		h4.2c0.4-1.3,0.8-2.8,1.1-3.9l5.5,1c-0.5,1-1,2-1.5,2.9h5.9v5.3c0.5-0.1,1.1-0.7,1.5-1.4c0.5-0.8,2.1-3.5,3-6.2h-4.9v-2.4h-6.5
		v-4.7h6.5V8.1h5.7v2.3h8.3v4.7h-8.3v2.3l3.6,1.1c-1,2.2-2.3,4.5-3.7,6.3l2.5-0.1c0.7-1.2,1.5-2.5,2.1-3.8l4,1.8
		c-1.5,2.4-3.2,4.8-5.1,7.1l3.3-1c1.1,2.3,1.9,5.3,2.1,7.3l-3.6,1.1c0-0.5-0.1-1.1-0.2-1.7c-6.6,0.8-7.8,1.1-8.6,1.5
		c-0.2-0.9-0.9-2.9-1.3-4c0.9-0.2,1.7-1,2.7-2.2c0.4-0.4,1.2-1.3,2.1-2.5c-2.6,0.3-3.4,0.5-3.9,0.8c-0.2-0.8-0.8-2.5-1.2-3.6v10.1
		h-4.9V38h18.5v4.3H40.2z M24.7,15.1H16v-4.7h8.7V8.1h5.7v2.3h6.1v4.7h-6.1v2.4h-5.7V15.1z M25.8,32.5c-0.2-0.8-0.5-1.6-0.8-2.3
		c-0.8,0.9-1.5,1.7-2.3,2.5L25.8,32.5z M27.9,29c0.9,1.9,1.6,4.3,2,6.2V23.6c-1.3,2.1-2.8,4.1-4.5,6.1L27.9,29z M40.1,23.7h-5.5V26
		h5.5V23.7z M34.7,31.9h5.5v-2.4h-5.5V31.9z M45.1,42.4c4.5,1.4,10.8,3.9,14.1,5.8l-3.4,3.6c-3.1-1.8-9.2-4.6-13.9-6.2L45.1,42.4z
		 M54.7,32.3c-0.2-0.9-0.6-1.7-0.9-2.5c-0.9,1-1.7,2-2.5,2.9L54.7,32.3z"/>
	<path class="st0" d="M64.9,31.4h18.3v21.4h-5.7v-2.2h-7.2V53h-5.4V31.4z M70.3,36.9v8.3h7.2v-8.3H70.3z M99.6,27.4H71.5V10.1h28.1
		V27.4z M93.8,15.5H77V22h16.8V15.5z M106.1,31.4v21.4h-5.8v-2.2h-7.6V53h-5.5V31.4H106.1z M100.3,45.1v-8.3h-7.6v8.3H100.3z"/>
	<path class="st0" d="M152.8,24.9c-2,6.2-4.8,11.8-8.3,16.5c1.4,3.5,2.9,5.5,4.5,5.5c1.2,0,1.7-2.4,2-8.4c1.3,1.3,3.3,2.6,4.8,3.2
		c-0.9,8.9-2.8,11-7.3,11c-3.4,0-6-2.4-8.1-6.3c-2.4,2.5-5.1,4.7-8.1,6.5c-0.9-1.2-2.9-3.6-4.1-4.7c3.7-2,7-4.7,9.8-7.8
		c-1.6-5.4-2.7-12.1-3.3-19.3h-13.9v5.1h11.9c0,0,0,1.5,0,2.2c-0.1,10.1-0.4,14.4-1.5,15.7c-0.9,1.2-1.9,1.7-3.3,1.9
		c-1.2,0.2-3.3,0.2-5.5,0.1c-0.1-1.7-0.7-3.9-1.6-5.3c1.7,0.1,3.4,0.2,4.1,0.2c0.7,0,1.1-0.1,1.4-0.6c0.5-0.7,0.7-3,0.8-9h-6.2
		c-0.2,7-1.2,16.4-5.1,22.2c-1-1.1-3.6-3.2-4.8-3.9c3.6-5.8,4-14.1,4-20.4v-14h19.6c-0.1-2.4-0.2-4.7-0.2-7.1h6c0,2.4,0,4.8,0.1,7.1
		h7.3c-1.8-1.4-4.2-3-6.1-4.2l3.5-3.4c2.6,1.3,6.1,3.6,7.8,5.1l-2.3,2.4h5V21h-14.8c0.4,4.8,1.1,9.3,1.9,13.2
		c1.9-3.2,3.5-6.8,4.6-10.7L152.8,24.9z"/>
	<path class="st0" d="M190.6,8.9c2.2,7,7.1,13.8,13.8,17.3c-1.2,1.2-3.1,3.6-4,5.3c-1.2-0.8-2.5-1.8-3.6-2.8
		c-0.5,14.2-1.1,19.7-2.8,21.7c-1.2,1.6-2.5,2.1-4.4,2.3c-1.6,0.2-4.4,0.2-7.2,0.1c-0.1-1.7-0.9-4.1-1.9-5.8
		c2.6,0.2,5.1,0.2,6.3,0.2c0.9,0,1.4-0.1,1.9-0.7c1-1.1,1.5-5.3,1.9-15.3h-9.5c-1.2,9.2-4.3,17.4-16.8,22.1c-0.7-1.6-2.4-4-3.8-5.3
		c10.8-3.5,13.3-9.8,14.3-16.8h-8.1v-3.2c-1.2,1.2-2.4,2.4-3.6,3.5c-1-1.2-3.5-3.3-4.8-4.2c5.4-3.9,9.7-10.3,11.9-17.5l6,1.4
		c-1.8,5.4-4.4,10.4-7.5,14.4h24.9c-3.1-3.4-5.6-7.4-7.2-11.5h-7.6V8.9H190.6z"/>
	<path class="st0" d="M226,11.3c-3.5,7.9-9.1,16-14.3,21c-1.1-1.2-3.6-3.7-5.1-4.9c5.1-4.3,10.1-11.2,13-18.2L226,11.3z M239.4,33.3
		c3.9,5.3,8.3,12.1,10.7,16.6l-5.9,3.1c-0.6-1.4-1.5-3-2.5-4.7c-23.2,1.8-26.4,2.1-28.8,3c-0.4-1.2-1.5-4.4-2.4-6.1
		c1.6-0.4,2.9-1.7,4.8-3.8c2-2.1,8-10.2,11.8-18.2l6.7,2.8c-3.7,6.5-8.3,12.9-13,18.1l17.6-1.2c-1.5-2.4-3.1-4.9-4.6-7L239.4,33.3z
		 M240.3,9.3c2.1,6.7,6.4,13.5,12.3,17.1c-1.3,1.2-3.4,4-4.3,5.8c-5.5-4.2-9.7-10.6-12.4-16.9h-7.7V9.3H240.3z"/>
	<path class="st0" d="M298.6,25.1v5.3h-42.3v-5.3h19.3v-5.5h-10.5c-1.2,2.1-2.6,3.9-3.9,5.4c-1.2-0.9-3.8-2.4-5.2-3
		c3.5-3.3,6.5-8.5,8.2-13.7l5.7,1.4c-0.5,1.6-1.2,3.1-1.9,4.7h7.6V8.1h6v6.2h14v5.2h-14v5.5H298.6z M261.8,33.8H294v19.2h-6.1v-2.2
		h-20.2v2.4h-5.9V33.8z M267.7,39.1v6.5h20.2v-6.5H267.7z"/>
	<path class="st0" d="M311.3,29.2c-1.6,1-3.3,1.7-5,2.4c-0.8-1.3-2.4-3.5-3.6-4.6c5.3-1.7,10.5-4.9,14.2-8.5h-12.8v-4.9h18.3V8.2
		h5.7v5.4h18.7v4.9h-12.1c4.6,2.8,9.5,6,12.3,8.4l-3.6,4.1c-3.3-3-9.7-7.5-15.2-10.9v6.9h-5.7v-7.2c-2.7,3.3-6.1,6.3-9.9,8.6h26.6
		v15.9h-27.8V29.2z M304.4,46.7h42v5h-42V46.7z M317,34.6h16.1v-2.4H317V34.6z M317,40.7h16.1v-2.5H317V40.7z"/>
	<path class="st0" d="M369.3,20.6h-18v-4.5h7.8c-0.8-1.8-2.1-4.2-3.2-6l4-2.3c1.3,2,2.9,4.6,3.6,6.3l-3,2h8.6V20.6z M395.1,15
		c0,0,0,2,0,2.6c-0.5,22.1-1,30-2.7,32.5c-1.2,1.8-2.4,2.3-4.1,2.6c-1.7,0.3-4.2,0.3-6.7,0.2c-0.1-1.6-0.8-4.1-1.8-5.7
		c2.5,0.2,4.7,0.2,5.8,0.2c0.8,0,1.3-0.2,1.9-0.9c1.2-1.5,1.8-8.5,2.2-26.4h-13.2c-0.7,1.2-1.4,2.4-2.1,3.5h11v19.8h-9.4v1.7h-4.5
		V26.7c-1.1-1-2.9-2.3-4.2-3.1v3.5h-14v-4.3h14v0.4c3.5-3.5,6.3-9.1,7.7-14.8l5.7,1.3c-0.5,1.8-1.2,3.6-1.9,5.3H395.1z M353.2,29.2
		h14.1v4.3h-14.1V29.2z M367.3,50.4h-9.6v2h-4.4V35.8h14V50.4z M357.7,40.4v5.4h5v-5.4H357.7z M375.9,28.1v3.3h4.8v-3.3H375.9z
		 M380.7,38.9v-3.2h-4.8v3.2H380.7z"/>
	<path class="st0" d="M414.9,41.2c-2.8,3.6-7.1,7.6-10.6,9.9c-1.2-1-3.6-2.9-5-3.7c3.6-2,7.4-5.2,9.7-8.3L414.9,41.2z M424.5,37.4
		v9.5c0,2.8-0.6,4.3-2.7,5.2c-2,0.9-4.8,0.9-8.3,0.9c-0.3-1.7-1.2-4.1-2.1-5.6c2.4,0.1,5.4,0.1,6.2,0.1c0.8,0,1.1-0.2,1.1-0.8v-8.9
		c-10.9,0.9-13.1,1.2-14.7,1.8c-0.2-1-1.1-3.7-1.7-5.1c1.9-0.3,3.7-1,6.7-2.4c1.5-0.6,4.3-2,7.6-4c-7.7,0.5-9.3,0.8-10.4,1.2
		c-0.3-1.1-1.1-3.8-1.7-5.3c1.3-0.2,2.4-0.7,4-1.6c1.3-0.6,4.5-2.4,7.7-4.8c-4.6,0.9-9.3,1.6-13.7,2.2c-0.2-1.4-1-3.6-1.6-4.8
		c11-1.5,23.1-4,30.5-7.1l4.2,4.5c-4,1.6-8.7,2.9-13.8,4l2.6,1.7c-2.6,1.9-5.3,3.7-8.2,5.4l8.3-0.4c1.8-1.2,3.5-2.5,5.1-3.8l4.2,3.8
		c-5.1,3.8-10.7,7.2-16.2,9.9l13.5-0.9c-1-1.2-2.1-2.4-3.1-3.4l4.8-2.4c3.4,3.4,7.3,7.9,9.4,10.8l-4.8,2.9c-0.6-1-1.4-2.1-2.4-3.4
		L424.5,37.4z M431.7,38.5c3.7,2.4,8.4,6.1,10.8,8.8l-5,3.4c-2.1-2.5-6.7-6.4-10.4-9.1L431.7,38.5z"/>
	<path class="st0" d="M452.8,40.4c-0.3,4.3-1.1,8.8-2.1,11.7c-0.9-0.6-3.1-1.2-4.2-1.5c1.1-2.8,1.6-7.1,1.9-10.9L452.8,40.4z
		 M461.3,37.6c-0.1-0.7-0.2-1.3-0.4-2.2c-9.6,1.7-11.2,2.2-12.2,2.7c-0.2-1.1-1.1-3.6-1.8-5.1c1.3-0.3,2.3-1.3,3.7-3.2
		c0.6-0.7,1.7-2,2.9-3.8c-3.6,0.4-4.6,0.7-5.3,1c-0.3-1.1-1.2-3.6-1.7-5c0.9-0.2,1.7-1.2,2.7-2.6c1-1.3,3.9-6.7,5.6-11.8l5.1,2.2
		c-1.8,4.1-4.2,8.4-6.7,12l3.2-0.2c1.3-2.3,2.6-4.8,3.7-7.2l4.7,2.9c-2.7,5.2-6.3,10.4-10,14.7l4.8-0.8c-0.4-1.2-0.9-2.5-1.4-3.6
		l3.8-1.5c1.5,3.1,2.9,7,3.4,9.6L461.3,37.6z M457.8,39.3c0.6,3.2,1.2,7.2,1.3,9.9l-4.2,1.1c-0.1-2.7-0.6-6.8-1.1-9.9L457.8,39.3z
		 M462.9,37.9c0.9,2.5,1.9,5.7,2.4,7.8l-4,1.5c-0.4-2.2-1.3-5.5-2.2-8L462.9,37.9z M486,47.1c0.9,0,1-0.9,1.2-6.5
		c1.1,0.9,3.4,1.8,4.8,2.1c-0.5,7.4-1.8,9.5-5.4,9.5h-3.5c-4.4,0-5.3-1.7-5.3-6.7V31.1l-2.7,0.3c-0.4,10.3-1.7,17.5-9.5,21.7
		c-0.6-1.4-2.3-3.5-3.5-4.5c6.3-3.3,7.3-8.5,7.6-16.6c-1.8,0.2-2.6,0.5-3.3,0.8c-0.3-1.1-1.2-3.9-1.9-5.5c1.2-0.3,2.1-1.5,3.3-3.5
		c0.6-0.8,1.7-2.6,2.9-5H465v-5.3h8.2c0.8-1.9,1.5-3.8,2.2-5.8l6.2,1.6c-0.6,1.4-1.2,2.7-1.8,4.1H491V19h-14c-1.4,2.7-3,5.3-4.6,7.6
		l10.1-1c-0.8-1.3-1.5-2.5-2.2-3.7l4.6-2.1c2.4,3.7,5.3,8.6,6.5,11.9l-5,2.3c-0.3-1.1-0.9-2.4-1.5-3.7l-1.9,0.2v14.9
		c0,1.5,0.1,1.7,0.9,1.7H486z"/>
</g>
</svg>
